<?xml version="1.0" encoding="utf-8" standalone="no"?>
<!DOCTYPE svg PUBLIC "-//W3C//DTD SVG 1.1//EN"
  "http://www.w3.org/Graphics/SVG/1.1/DTD/svg11.dtd">
<svg xmlns:xlink="http://www.w3.org/1999/xlink" width="480.685pt" height="209.732pt" viewBox="0 0 480.685 209.732" xmlns="http://www.w3.org/2000/svg" version="1.1">
 <metadata>
  <rdf:RDF xmlns:dc="http://purl.org/dc/elements/1.1/" xmlns:cc="http://creativecommons.org/ns#" xmlns:rdf="http://www.w3.org/1999/02/22-rdf-syntax-ns#">
   <cc:Work>
    <dc:type rdf:resource="http://purl.org/dc/dcmitype/StillImage"/>
    <dc:date>2026-09-20T21:24:38.759892</dc:date>
    <dc:format>image/svg+xml</dc:format>
    <dc:creator>
     <cc:Agent>
      <dc:title>Matplotlib v3.11.1, https://matplotlib.org/</dc:title>
     </cc:Agent>
    </dc:creator>
   </cc:Work>
  </rdf:RDF>
 </metadata>
 <defs>
  <style type="text/css">*{stroke-linejoin: round; stroke-linecap: butt}</style>
 </defs>
 <g id="figure_1">
  <g id="patch_1">
   <path d="M 0 209.732 
L 480.685 209.732 
L 480.685 0 
L 0 0 
z
" style="fill: #ffffff"/>
  </g>
  <g id="axes_1">
   <g id="patch_2">
    <path d="M 34.45 178.532 
L 236.384884 178.532 
L 236.384884 44.576 
L 34.45 44.576 
z
" style="fill: #ffffff"/>
   </g>
   <g id="line2d_1">
    <path d="M 34.45 116.515333 
L 236.384884 116.515333 
" clip-path="url(#pe8fd66aab3)" style="fill: none; stroke-dasharray: 0.8,1.32; stroke-dashoffset: 0; stroke: #888888; stroke-width: 0.8"/>
   </g>
   <g id="matplotlib.axis_1">
    <g id="xtick_1">
     <g id="line2d_2">
      <defs>
       <path id="m790f665171" d="M 0 0 
L 0 3 
" style="stroke: #000000; stroke-width: 0.7"/>
      </defs>
      <g>
       <use xlink:href="#m790f665171" x="34.45" y="178.532" style="stroke: #000000; stroke-width: 0.7"/>
      </g>
     </g>
     <g id="text_1">
      <text style="font-size: 6.5px; font-family: 'SimSun', 'Times New Roman', 'Times', 'DejaVu Serif', serif; text-anchor: middle" x="34.45" y="190.617937" transform="rotate(-0 34.45 190.617937)">1</text>
     </g>
    </g>
    <g id="xtick_2">
     <g id="line2d_3">
      <g>
       <use xlink:href="#m790f665171" x="73.752763" y="178.532" style="stroke: #000000; stroke-width: 0.7"/>
      </g>
     </g>
     <g id="text_2">
      <text style="font-size: 6.5px; font-family: 'SimSun', 'Times New Roman', 'Times', 'DejaVu Serif', serif; text-anchor: middle" x="73.752763" y="190.617937" transform="rotate(-0 73.752763 190.617937)">30</text>
     </g>
    </g>
    <g id="xtick_3">
     <g id="line2d_4">
      <g>
       <use xlink:href="#m790f665171" x="114.410793" y="178.532" style="stroke: #000000; stroke-width: 0.7"/>
      </g>
     </g>
     <g id="text_3">
      <text style="font-size: 6.5px; font-family: 'SimSun', 'Times New Roman', 'Times', 'DejaVu Serif', serif; text-anchor: middle" x="114.410793" y="190.617937" transform="rotate(-0 114.410793 190.617937)">60</text>
     </g>
    </g>
    <g id="xtick_4">
     <g id="line2d_5">
      <g>
       <use xlink:href="#m790f665171" x="155.068823" y="178.532" style="stroke: #000000; stroke-width: 0.7"/>
      </g>
     </g>
     <g id="text_4">
      <text style="font-size: 6.5px; font-family: 'SimSun', 'Times New Roman', 'Times', 'DejaVu Serif', serif; text-anchor: middle" x="155.068823" y="190.617937" transform="rotate(-0 155.068823 190.617937)">90</text>
     </g>
    </g>
    <g id="xtick_5">
     <g id="line2d_6">
      <g>
       <use xlink:href="#m790f665171" x="195.726853" y="178.532" style="stroke: #000000; stroke-width: 0.7"/>
      </g>
     </g>
     <g id="text_5">
      <text style="font-size: 6.5px; font-family: 'SimSun', 'Times New Roman', 'Times', 'DejaVu Serif', serif; text-anchor: middle" x="195.726853" y="190.617937" transform="rotate(-0 195.726853 190.617937)">120</text>
     </g>
    </g>
    <g id="xtick_6">
     <g id="line2d_7">
      <g>
       <use xlink:href="#m790f665171" x="236.384884" y="178.532" style="stroke: #000000; stroke-width: 0.7"/>
      </g>
     </g>
     <g id="text_6">
      <text style="font-size: 6.5px; font-family: 'SimSun', 'Times New Roman', 'Times', 'DejaVu Serif', serif; text-anchor: middle" x="236.384884" y="190.617937" transform="rotate(-0 236.384884 190.617937)">150</text>
     </g>
    </g>
    <g id="text_7">
     <text style="font-size: 7px; font-family: 'SimSun', 'Times New Roman', 'Times', 'DejaVu Serif', serif; text-anchor: middle" x="135.417442" y="201.547625" transform="rotate(-0 135.417442 201.547625)">测试窗口索引（前150个）</text>
    </g>
   </g>
   <g id="matplotlib.axis_2">
    <g id="ytick_1">
     <g id="line2d_8">
      <path d="M 34.45 178.532 
L 236.384884 178.532 
" clip-path="url(#pe8fd66aab3)" style="fill: none; stroke-dasharray: 1.85,0.8; stroke-dashoffset: 0; stroke: #dedede; stroke-opacity: 0.65; stroke-width: 0.5"/>
     </g>
     <g id="line2d_9">
      <defs>
       <path id="mc4db414a71" d="M 0 0 
L -3 0 
" style="stroke: #000000; stroke-width: 0.7"/>
      </defs>
      <g>
       <use xlink:href="#mc4db414a71" x="34.45" y="178.532" style="stroke: #000000; stroke-width: 0.7"/>
      </g>
     </g>
     <g id="text_8">
      <text style="font-size: 6.5px; font-family: 'SimSun', 'Times New Roman', 'Times', 'DejaVu Serif', serif; text-anchor: end" x="27.95" y="181.324969" transform="rotate(-0 27.95 181.324969)">0.0</text>
     </g>
    </g>
    <g id="ytick_2">
     <g id="line2d_10">
      <path d="M 34.45 159.927 
L 236.384884 159.927 
" clip-path="url(#pe8fd66aab3)" style="fill: none; stroke-dasharray: 1.85,0.8; stroke-dashoffset: 0; stroke: #dedede; stroke-opacity: 0.65; stroke-width: 0.5"/>
     </g>
     <g id="line2d_11">
      <g>
       <use xlink:href="#mc4db414a71" x="34.45" y="159.927" style="stroke: #000000; stroke-width: 0.7"/>
      </g>
     </g>
     <g id="text_9">
      <text style="font-size: 6.5px; font-family: 'SimSun', 'Times New Roman', 'Times', 'DejaVu Serif', serif; text-anchor: end" x="27.95" y="162.719969" transform="rotate(-0 27.95 162.719969)">0.1</text>
     </g>
    </g>
    <g id="ytick_3">
     <g id="line2d_12">
      <path d="M 34.45 141.322 
L 236.384884 141.322 
" clip-path="url(#pe8fd66aab3)" style="fill: none; stroke-dasharray: 1.85,0.8; stroke-dashoffset: 0; stroke: #dedede; stroke-opacity: 0.65; stroke-width: 0.5"/>
     </g>
     <g id="line2d_13">
      <g>
       <use xlink:href="#mc4db414a71" x="34.45" y="141.322" style="stroke: #000000; stroke-width: 0.7"/>
      </g>
     </g>
     <g id="text_10">
      <text style="font-size: 6.5px; font-family: 'SimSun', 'Times New Roman', 'Times', 'DejaVu Serif', serif; text-anchor: end" x="27.95" y="144.114969" transform="rotate(-0 27.95 144.114969)">0.2</text>
     </g>
    </g>
    <g id="ytick_4">
     <g id="line2d_14">
      <path d="M 34.45 122.717 
L 236.384884 122.717 
" clip-path="url(#pe8fd66aab3)" style="fill: none; stroke-dasharray: 1.85,0.8; stroke-dashoffset: 0; stroke: #dedede; stroke-opacity: 0.65; stroke-width: 0.5"/>
     </g>
     <g id="line2d_15">
      <g>
       <use xlink:href="#mc4db414a71" x="34.45" y="122.717" style="stroke: #000000; stroke-width: 0.7"/>
      </g>
     </g>
     <g id="text_11">
      <text style="font-size: 6.5px; font-family: 'SimSun', 'Times New Roman', 'Times', 'DejaVu Serif', serif; text-anchor: end" x="27.95" y="125.509969" transform="rotate(-0 27.95 125.509969)">0.3</text>
     </g>
    </g>
    <g id="ytick_5">
     <g id="line2d_16">
      <path d="M 34.45 104.112 
L 236.384884 104.112 
" clip-path="url(#pe8fd66aab3)" style="fill: none; stroke-dasharray: 1.85,0.8; stroke-dashoffset: 0; stroke: #dedede; stroke-opacity: 0.65; stroke-width: 0.5"/>
     </g>
     <g id="line2d_17">
      <g>
       <use xlink:href="#mc4db414a71" x="34.45" y="104.112" style="stroke: #000000; stroke-width: 0.7"/>
      </g>
     </g>
     <g id="text_12">
      <text style="font-size: 6.5px; font-family: 'SimSun', 'Times New Roman', 'Times', 'DejaVu Serif', serif; text-anchor: end" x="27.95" y="106.904969" transform="rotate(-0 27.95 106.904969)">0.4</text>
     </g>
    </g>
    <g id="ytick_6">
     <g id="line2d_18">
      <path d="M 34.45 85.507 
L 236.384884 85.507 
" clip-path="url(#pe8fd66aab3)" style="fill: none; stroke-dasharray: 1.85,0.8; stroke-dashoffset: 0; stroke: #dedede; stroke-opacity: 0.65; stroke-width: 0.5"/>
     </g>
     <g id="line2d_19">
      <g>
       <use xlink:href="#mc4db414a71" x="34.45" y="85.507" style="stroke: #000000; stroke-width: 0.7"/>
      </g>
     </g>
     <g id="text_13">
      <text style="font-size: 6.5px; font-family: 'SimSun', 'Times New Roman', 'Times', 'DejaVu Serif', serif; text-anchor: end" x="27.95" y="88.299969" transform="rotate(-0 27.95 88.299969)">0.5</text>
     </g>
    </g>
    <g id="ytick_7">
     <g id="line2d_20">
      <path d="M 34.45 66.902 
L 236.384884 66.902 
" clip-path="url(#pe8fd66aab3)" style="fill: none; stroke-dasharray: 1.85,0.8; stroke-dashoffset: 0; stroke: #dedede; stroke-opacity: 0.65; stroke-width: 0.5"/>
     </g>
     <g id="line2d_21">
      <g>
       <use xlink:href="#mc4db414a71" x="34.45" y="66.902" style="stroke: #000000; stroke-width: 0.7"/>
      </g>
     </g>
     <g id="text_14">
      <text style="font-size: 6.5px; font-family: 'SimSun', 'Times New Roman', 'Times', 'DejaVu Serif', serif; text-anchor: end" x="27.95" y="69.694969" transform="rotate(-0 27.95 69.694969)">0.6</text>
     </g>
    </g>
    <g id="ytick_8">
     <g id="line2d_22">
      <path d="M 34.45 48.297 
L 236.384884 48.297 
" clip-path="url(#pe8fd66aab3)" style="fill: none; stroke-dasharray: 1.85,0.8; stroke-dashoffset: 0; stroke: #dedede; stroke-opacity: 0.65; stroke-width: 0.5"/>
     </g>
     <g id="line2d_23">
      <g>
       <use xlink:href="#mc4db414a71" x="34.45" y="48.297" style="stroke: #000000; stroke-width: 0.7"/>
      </g>
     </g>
     <g id="text_15">
      <text style="font-size: 6.5px; font-family: 'SimSun', 'Times New Roman', 'Times', 'DejaVu Serif', serif; text-anchor: end" x="27.95" y="51.089969" transform="rotate(-0 27.95 51.089969)">0.7</text>
     </g>
    </g>
    <g id="text_16">
     <text style="font-size: 7px; font-family: 'SimSun', 'Times New Roman', 'Times', 'DejaVu Serif', serif; text-anchor: middle" x="13.215625" y="111.554" transform="rotate(-90 13.215625 111.554)">样本级路由权重</text>
    </g>
   </g>
   <g id="line2d_24">
    <path d="M 34.45 134.109741 
L 35.805268 134.500982 
L 37.160535 135.686078 
L 38.515803 132.983458 
L 39.871071 132.302511 
L 41.226338 131.261182 
L 42.581606 131.164631 
L 43.936874 128.989043 
L 45.292141 129.108787 
L 46.647409 127.944135 
L 48.002677 131.35608 
L 49.357944 132.489681 
L 50.713212 132.122967 
L 52.06848 133.280813 
L 53.423747 133.073086 
L 54.779015 134.542032 
L 56.134283 136.754354 
L 57.48955 134.334233 
L 58.844818 134.499463 
L 60.200086 138.43926 
L 61.555354 136.254309 
L 62.910621 131.409642 
L 64.265889 132.791372 
L 65.621157 134.358663 
L 66.976424 131.644372 
L 68.331692 130.147009 
L 69.68696 130.654134 
L 71.042227 127.453322 
L 73.752763 130.050968 
L 75.10803 126.760276 
L 76.463298 128.9318 
L 77.818566 126.097665 
L 79.173833 126.41764 
L 80.529101 126.35576 
L 81.884369 128.217434 
L 83.239636 132.443693 
L 84.594904 133.708763 
L 85.950172 133.395725 
L 87.305439 134.543405 
L 88.660707 136.382298 
L 90.015975 136.629462 
L 91.371242 136.226713 
L 92.72651 135.178747 
L 95.437045 135.007398 
L 96.792313 134.499854 
L 98.147581 136.938606 
L 99.502848 136.176766 
L 100.858116 134.407881 
L 102.213384 135.762925 
L 103.568651 131.704477 
L 104.923919 132.242523 
L 106.279187 130.527876 
L 107.634455 132.914152 
L 108.989722 130.501045 
L 110.34499 129.36736 
L 113.055525 137.93388 
L 114.410793 139.918555 
L 115.766061 141.121441 
L 117.121328 141.399129 
L 118.476596 142.535212 
L 121.187131 143.28472 
L 122.542399 143.285882 
L 123.897667 142.745172 
L 125.252934 141.386177 
L 126.608202 140.389782 
L 127.96347 138.770013 
L 129.318737 137.801342 
L 130.674005 138.009627 
L 132.029273 137.866066 
L 133.38454 137.472435 
L 134.739808 135.447181 
L 136.095076 134.845528 
L 137.450343 133.868745 
L 138.805611 134.634965 
L 140.160879 132.728298 
L 141.516146 133.273378 
L 142.871414 133.116875 
L 144.226682 136.026332 
L 146.937217 140.715265 
L 148.292485 141.680008 
L 149.647752 142.241264 
L 151.00302 142.403326 
L 152.358288 142.292071 
L 153.713555 142.971632 
L 155.068823 142.891757 
L 156.424091 142.526768 
L 157.779359 141.880411 
L 159.134626 140.773266 
L 160.489894 138.705903 
L 161.845162 137.709904 
L 163.200429 138.628271 
L 164.555697 138.446046 
L 165.910965 138.496254 
L 168.6215 135.235952 
L 169.976768 135.442573 
L 171.332035 136.795405 
L 174.042571 134.599426 
L 175.397838 134.786061 
L 176.753106 136.158197 
L 178.108374 138.865854 
L 179.463641 141.216098 
L 180.818909 141.965295 
L 182.174177 142.862115 
L 183.529444 142.257558 
L 184.884712 143.070921 
L 187.595247 143.54815 
L 188.950515 142.774046 
L 190.305783 140.731079 
L 191.66105 139.042703 
L 193.016318 136.860874 
L 194.371586 137.353331 
L 195.726853 136.10008 
L 197.082121 137.84641 
L 198.437389 135.206542 
L 199.792656 136.894744 
L 201.147924 136.278432 
L 202.503192 134.207278 
L 203.858459 134.478778 
L 205.213727 132.492296 
L 206.568995 129.981626 
L 207.924263 129.351302 
L 210.634798 138.098661 
L 211.990066 140.952338 
L 213.345333 142.269107 
L 214.700601 142.362949 
L 216.055869 143.323619 
L 218.766404 144.071364 
L 220.121672 143.784896 
L 221.476939 142.957374 
L 224.187475 139.96894 
L 225.542742 137.456535 
L 226.89801 137.736685 
L 228.253278 137.413054 
L 229.608545 135.716183 
L 230.963813 136.772458 
L 232.319081 135.747533 
L 233.674348 132.863806 
L 235.029616 133.34272 
L 236.384884 131.709744 
L 236.384884 131.709744 
" clip-path="url(#pe8fd66aab3)" style="fill: none; stroke: #0072b2; stroke-width: 1.25; stroke-linecap: square"/>
   </g>
   <g id="line2d_25">
    <path d="M 34.45 148.692338 
L 35.805268 148.846068 
L 37.160535 149.339451 
L 38.515803 148.230751 
L 39.871071 147.960534 
L 41.226338 147.545628 
L 42.581606 147.510419 
L 43.936874 146.671863 
L 45.292141 146.712889 
L 46.647409 146.265302 
L 48.002677 147.536069 
L 49.357944 147.950501 
L 50.713212 147.768645 
L 52.06848 148.193781 
L 53.423747 148.074517 
L 54.779015 148.636663 
L 56.134283 149.536053 
L 57.48955 148.487807 
L 58.844818 148.521732 
L 60.200086 150.223643 
L 61.555354 149.227761 
L 62.910621 147.226424 
L 65.621157 148.385937 
L 66.976424 147.269363 
L 68.331692 146.656912 
L 69.68696 146.83401 
L 71.042227 145.590981 
L 73.752763 146.532411 
L 75.10803 145.277235 
L 76.463298 146.077838 
L 77.818566 145.004726 
L 79.173833 145.09475 
L 80.529101 145.027676 
L 81.884369 145.66729 
L 83.239636 147.275246 
L 84.594904 147.754515 
L 85.950172 147.589687 
L 87.305439 148.029403 
L 88.660707 148.802065 
L 90.015975 148.882486 
L 91.371242 148.678997 
L 92.72651 148.191372 
L 96.792313 147.841428 
L 98.147581 148.908058 
L 99.502848 148.556201 
L 100.858116 147.760156 
L 102.213384 148.349402 
L 103.568651 146.61236 
L 104.923919 146.819153 
L 106.279187 146.118278 
L 107.634455 147.088472 
L 108.989722 146.096446 
L 110.34499 145.646478 
L 111.700258 147.333723 
L 113.055525 149.437837 
L 114.410793 150.693448 
L 115.766061 151.459515 
L 117.121328 151.636544 
L 118.476596 152.489231 
L 121.187131 153.090068 
L 122.542399 153.093899 
L 123.897667 152.66245 
L 125.252934 151.639657 
L 126.608202 151.009827 
L 127.96347 149.976648 
L 129.318737 149.366354 
L 130.674005 149.498086 
L 132.029273 149.40914 
L 133.38454 149.162641 
L 134.739808 148.123436 
L 136.095076 147.856025 
L 137.450343 147.432186 
L 138.805611 147.764537 
L 140.160879 146.938334 
L 141.516146 147.16762 
L 142.871414 147.094668 
L 145.581949 149.717125 
L 146.937217 151.195766 
L 148.292485 151.820074 
L 149.647752 152.273006 
L 151.00302 152.404588 
L 152.358288 152.316657 
L 153.713555 152.862473 
L 155.068823 152.799458 
L 156.424091 152.509585 
L 157.779359 151.993435 
L 159.134626 151.250603 
L 160.489894 149.931231 
L 161.845162 149.306147 
L 163.200429 149.894032 
L 164.555697 149.785826 
L 165.910965 149.814828 
L 167.266232 148.839694 
L 168.6215 148.066233 
L 169.976768 148.159684 
L 171.332035 148.792664 
L 174.042571 147.822457 
L 175.397838 147.913105 
L 176.753106 148.536124 
L 179.463641 151.57439 
L 180.818909 152.067873 
L 182.174177 152.685486 
L 183.529444 152.277594 
L 184.884712 152.838351 
L 187.595247 153.183402 
L 188.950515 152.658652 
L 190.305783 151.349707 
L 193.016318 149.12306 
L 194.371586 149.353976 
L 195.726853 148.799168 
L 197.082121 149.590339 
L 198.437389 148.436538 
L 199.792656 149.192486 
L 201.147924 148.942053 
L 202.503192 148.069211 
L 203.858459 148.193732 
L 205.213727 147.39451 
L 206.568995 146.402839 
L 207.924263 146.16822 
L 211.990066 151.501557 
L 213.345333 152.359204 
L 214.700601 152.439422 
L 216.055869 153.07414 
L 218.766404 153.596326 
L 220.121672 153.427744 
L 221.476939 152.90852 
L 224.187475 151.060641 
L 225.542742 149.836087 
L 226.89801 149.968894 
L 228.253278 149.832172 
L 229.608545 149.110346 
L 230.963813 149.56724 
L 232.319081 149.13609 
L 233.674348 147.959381 
L 235.029616 148.158403 
L 236.384884 147.514209 
L 236.384884 147.514209 
" clip-path="url(#pe8fd66aab3)" style="fill: none; stroke-dasharray: 4.625,2; stroke-dashoffset: 0; stroke: #009e73; stroke-width: 1.25"/>
   </g>
   <g id="line2d_26">
    <path d="M 34.45 66.743927 
L 35.805268 66.198947 
L 37.160535 64.52046 
L 38.515803 68.33178 
L 39.871071 69.282944 
L 41.226338 70.739187 
L 42.581606 70.870963 
L 43.936874 73.885085 
L 45.292141 73.724321 
L 46.647409 75.33656 
L 48.002677 70.653843 
L 49.357944 69.105801 
L 50.713212 69.654385 
L 52.06848 68.0714 
L 53.423747 68.398394 
L 54.779015 66.367296 
L 56.134283 63.255598 
L 57.48955 66.723955 
L 58.844818 66.52481 
L 60.200086 60.883089 
L 61.555354 64.06393 
L 62.910621 70.90992 
L 64.265889 68.994962 
L 65.621157 66.801392 
L 66.976424 70.632274 
L 68.331692 72.742074 
L 69.68696 72.057855 
L 71.042227 76.501695 
L 73.752763 72.962621 
L 75.10803 77.508483 
L 76.463298 74.536368 
L 77.818566 78.443612 
L 79.173833 78.033602 
L 80.529101 78.162572 
L 81.884369 75.661281 
L 83.239636 69.827058 
L 84.594904 68.082722 
L 85.950172 68.560599 
L 87.305439 66.97319 
L 88.660707 64.361648 
L 90.015975 64.034044 
L 91.371242 64.640281 
L 92.72651 66.175892 
L 94.081778 66.380426 
L 95.437045 66.461689 
L 96.792313 67.204704 
L 98.147581 63.699331 
L 99.502848 64.813033 
L 100.858116 67.377977 
L 102.213384 65.433676 
L 103.568651 71.229163 
L 104.923919 70.48433 
L 106.279187 72.899855 
L 107.634455 69.543379 
L 108.989722 72.948515 
L 110.34499 74.532154 
L 111.700258 68.65934 
L 113.055525 62.174277 
L 114.410793 58.933997 
L 115.766061 56.965033 
L 117.121328 56.510332 
L 118.476596 54.521563 
L 121.187131 53.171223 
L 122.542399 53.166222 
L 123.897667 54.138378 
L 125.252934 56.520169 
L 126.608202 58.146391 
L 127.96347 60.799341 
L 129.318737 62.378301 
L 130.674005 62.038287 
L 132.029273 62.2708 
L 133.38454 62.910927 
L 134.739808 65.975384 
L 136.095076 66.844441 
L 137.450343 68.24506 
L 138.805611 67.146507 
L 140.160879 69.879367 
L 141.516146 69.105002 
L 142.871414 69.334454 
L 144.226682 65.158136 
L 146.937217 57.63498 
L 148.292485 56.045929 
L 149.647752 55.03171 
L 151.00302 54.738095 
L 152.358288 54.937273 
L 153.713555 53.711911 
L 155.068823 53.854777 
L 156.424091 54.509653 
L 157.779359 55.672148 
L 159.134626 57.522122 
L 160.489894 60.908872 
L 161.845162 62.52996 
L 163.200429 61.023692 
L 164.555697 61.314124 
L 165.910965 61.234901 
L 168.6215 66.243815 
L 169.976768 65.943746 
L 171.332035 63.957926 
L 172.687303 65.638176 
L 174.042571 67.124117 
L 175.397838 66.846837 
L 176.753106 64.851679 
L 178.108374 60.611209 
L 179.463641 56.755498 
L 180.818909 55.512837 
L 182.174177 53.998396 
L 183.529444 55.010851 
L 184.884712 53.636725 
L 186.23998 53.299462 
L 187.595247 52.814465 
L 188.950515 54.113294 
L 190.305783 57.465222 
L 191.66105 60.22259 
L 193.016318 63.562066 
L 194.371586 62.838701 
L 195.726853 64.646757 
L 197.082121 62.109249 
L 198.437389 65.902914 
L 199.792656 63.458779 
L 201.147924 64.325518 
L 202.503192 67.2695 
L 203.858459 66.873496 
L 205.213727 69.659186 
L 206.568995 73.161532 
L 207.924263 74.026476 
L 210.634798 61.60774 
L 211.990066 57.092096 
L 213.345333 54.917689 
L 214.700601 54.743629 
L 216.055869 53.148246 
L 218.766404 51.878305 
L 220.121672 52.333349 
L 221.476939 53.680118 
L 224.187475 58.516424 
L 225.542742 62.253367 
L 226.89801 61.840418 
L 228.253278 62.300774 
L 229.608545 64.719471 
L 230.963813 63.206294 
L 232.319081 64.66236 
L 233.674348 68.722805 
L 235.029616 68.044874 
L 236.384884 70.322047 
L 236.384884 70.322047 
" clip-path="url(#pe8fd66aab3)" style="fill: none; stroke-dasharray: 8,2,1.25,2; stroke-dashoffset: 0; stroke: #d55e00; stroke-width: 1.25"/>
   </g>
   <g id="patch_3">
    <path d="M 34.45 178.532 
L 34.45 44.576 
" style="fill: none; stroke: #000000; stroke-width: 0.8; stroke-linejoin: miter; stroke-linecap: square"/>
   </g>
   <g id="patch_4">
    <path d="M 34.45 178.532 
L 236.384884 178.532 
" style="fill: none; stroke: #000000; stroke-width: 0.8; stroke-linejoin: miter; stroke-linecap: square"/>
   </g>
   <g id="text_17">
    <text style="font-weight: 700; font-size: 8px; font-family: 'Times New Roman'; text-anchor: start; fill: #111111" x="25.45" y="38.849437" transform="rotate(-0 25.45 38.849437)">a</text>
   </g>
   <g id="text_18">
    <text style="font-weight: 700; font-size: 8px; font-family: 'Times New Roman'; text-anchor: middle" x="135.417442" y="34.576" transform="rotate(-0 135.417442 34.576)">Abilene</text>
   </g>
  </g>
  <g id="axes_2">
   <g id="patch_5">
    <path d="M 266.675116 178.532 
L 468.61 178.532 
L 468.61 44.576 
L 266.675116 44.576 
z
" style="fill: #ffffff"/>
   </g>
   <g id="line2d_27">
    <path d="M 266.675116 116.515333 
L 468.61 116.515333 
" clip-path="url(#p674db9e49b)" style="fill: none; stroke-dasharray: 0.8,1.32; stroke-dashoffset: 0; stroke: #888888; stroke-width: 0.8"/>
   </g>
   <g id="matplotlib.axis_3">
    <g id="xtick_7">
     <g id="line2d_28">
      <g>
       <use xlink:href="#m790f665171" x="266.675116" y="178.532" style="stroke: #000000; stroke-width: 0.7"/>
      </g>
     </g>
     <g id="text_19">
      <text style="font-size: 6.5px; font-family: 'SimSun', 'Times New Roman', 'Times', 'DejaVu Serif', serif; text-anchor: middle" x="266.675116" y="190.617937" transform="rotate(-0 266.675116 190.617937)">1</text>
     </g>
    </g>
    <g id="xtick_8">
     <g id="line2d_29">
      <g>
       <use xlink:href="#m790f665171" x="305.977879" y="178.532" style="stroke: #000000; stroke-width: 0.7"/>
      </g>
     </g>
     <g id="text_20">
      <text style="font-size: 6.5px; font-family: 'SimSun', 'Times New Roman', 'Times', 'DejaVu Serif', serif; text-anchor: middle" x="305.977879" y="190.617937" transform="rotate(-0 305.977879 190.617937)">30</text>
     </g>
    </g>
    <g id="xtick_9">
     <g id="line2d_30">
      <g>
       <use xlink:href="#m790f665171" x="346.635909" y="178.532" style="stroke: #000000; stroke-width: 0.7"/>
      </g>
     </g>
     <g id="text_21">
      <text style="font-size: 6.5px; font-family: 'SimSun', 'Times New Roman', 'Times', 'DejaVu Serif', serif; text-anchor: middle" x="346.635909" y="190.617937" transform="rotate(-0 346.635909 190.617937)">60</text>
     </g>
    </g>
    <g id="xtick_10">
     <g id="line2d_31">
      <g>
       <use xlink:href="#m790f665171" x="387.293939" y="178.532" style="stroke: #000000; stroke-width: 0.7"/>
      </g>
     </g>
     <g id="text_22">
      <text style="font-size: 6.5px; font-family: 'SimSun', 'Times New Roman', 'Times', 'DejaVu Serif', serif; text-anchor: middle" x="387.293939" y="190.617937" transform="rotate(-0 387.293939 190.617937)">90</text>
     </g>
    </g>
    <g id="xtick_11">
     <g id="line2d_32">
      <g>
       <use xlink:href="#m790f665171" x="427.95197" y="178.532" style="stroke: #000000; stroke-width: 0.7"/>
      </g>
     </g>
     <g id="text_23">
      <text style="font-size: 6.5px; font-family: 'SimSun', 'Times New Roman', 'Times', 'DejaVu Serif', serif; text-anchor: middle" x="427.95197" y="190.617937" transform="rotate(-0 427.95197 190.617937)">120</text>
     </g>
    </g>
    <g id="xtick_12">
     <g id="line2d_33">
      <g>
       <use xlink:href="#m790f665171" x="468.61" y="178.532" style="stroke: #000000; stroke-width: 0.7"/>
      </g>
     </g>
     <g id="text_24">
      <text style="font-size: 6.5px; font-family: 'SimSun', 'Times New Roman', 'Times', 'DejaVu Serif', serif; text-anchor: middle" x="468.61" y="190.617937" transform="rotate(-0 468.61 190.617937)">150</text>
     </g>
    </g>
    <g id="text_25">
     <text style="font-size: 7px; font-family: 'SimSun', 'Times New Roman', 'Times', 'DejaVu Serif', serif; text-anchor: middle" x="367.642558" y="201.547625" transform="rotate(-0 367.642558 201.547625)">测试窗口索引（前150个）</text>
    </g>
   </g>
   <g id="matplotlib.axis_4">
    <g id="ytick_9">
     <g id="line2d_34">
      <path d="M 266.675116 178.532 
L 468.61 178.532 
" clip-path="url(#p674db9e49b)" style="fill: none; stroke-dasharray: 1.85,0.8; stroke-dashoffset: 0; stroke: #dedede; stroke-opacity: 0.65; stroke-width: 0.5"/>
     </g>
     <g id="line2d_35">
      <g>
       <use xlink:href="#mc4db414a71" x="266.675116" y="178.532" style="stroke: #000000; stroke-width: 0.7"/>
      </g>
     </g>
    </g>
    <g id="ytick_10">
     <g id="line2d_36">
      <path d="M 266.675116 159.927 
L 468.61 159.927 
" clip-path="url(#p674db9e49b)" style="fill: none; stroke-dasharray: 1.85,0.8; stroke-dashoffset: 0; stroke: #dedede; stroke-opacity: 0.65; stroke-width: 0.5"/>
     </g>
     <g id="line2d_37">
      <g>
       <use xlink:href="#mc4db414a71" x="266.675116" y="159.927" style="stroke: #000000; stroke-width: 0.7"/>
      </g>
     </g>
    </g>
    <g id="ytick_11">
     <g id="line2d_38">
      <path d="M 266.675116 141.322 
L 468.61 141.322 
" clip-path="url(#p674db9e49b)" style="fill: none; stroke-dasharray: 1.85,0.8; stroke-dashoffset: 0; stroke: #dedede; stroke-opacity: 0.65; stroke-width: 0.5"/>
     </g>
     <g id="line2d_39">
      <g>
       <use xlink:href="#mc4db414a71" x="266.675116" y="141.322" style="stroke: #000000; stroke-width: 0.7"/>
      </g>
     </g>
    </g>
    <g id="ytick_12">
     <g id="line2d_40">
      <path d="M 266.675116 122.717 
L 468.61 122.717 
" clip-path="url(#p674db9e49b)" style="fill: none; stroke-dasharray: 1.85,0.8; stroke-dashoffset: 0; stroke: #dedede; stroke-opacity: 0.65; stroke-width: 0.5"/>
     </g>
     <g id="line2d_41">
      <g>
       <use xlink:href="#mc4db414a71" x="266.675116" y="122.717" style="stroke: #000000; stroke-width: 0.7"/>
      </g>
     </g>
    </g>
    <g id="ytick_13">
     <g id="line2d_42">
      <path d="M 266.675116 104.112 
L 468.61 104.112 
" clip-path="url(#p674db9e49b)" style="fill: none; stroke-dasharray: 1.85,0.8; stroke-dashoffset: 0; stroke: #dedede; stroke-opacity: 0.65; stroke-width: 0.5"/>
     </g>
     <g id="line2d_43">
      <g>
       <use xlink:href="#mc4db414a71" x="266.675116" y="104.112" style="stroke: #000000; stroke-width: 0.7"/>
      </g>
     </g>
    </g>
    <g id="ytick_14">
     <g id="line2d_44">
      <path d="M 266.675116 85.507 
L 468.61 85.507 
" clip-path="url(#p674db9e49b)" style="fill: none; stroke-dasharray: 1.85,0.8; stroke-dashoffset: 0; stroke: #dedede; stroke-opacity: 0.65; stroke-width: 0.5"/>
     </g>
     <g id="line2d_45">
      <g>
       <use xlink:href="#mc4db414a71" x="266.675116" y="85.507" style="stroke: #000000; stroke-width: 0.7"/>
      </g>
     </g>
    </g>
    <g id="ytick_15">
     <g id="line2d_46">
      <path d="M 266.675116 66.902 
L 468.61 66.902 
" clip-path="url(#p674db9e49b)" style="fill: none; stroke-dasharray: 1.85,0.8; stroke-dashoffset: 0; stroke: #dedede; stroke-opacity: 0.65; stroke-width: 0.5"/>
     </g>
     <g id="line2d_47">
      <g>
       <use xlink:href="#mc4db414a71" x="266.675116" y="66.902" style="stroke: #000000; stroke-width: 0.7"/>
      </g>
     </g>
    </g>
    <g id="ytick_16">
     <g id="line2d_48">
      <path d="M 266.675116 48.297 
L 468.61 48.297 
" clip-path="url(#p674db9e49b)" style="fill: none; stroke-dasharray: 1.85,0.8; stroke-dashoffset: 0; stroke: #dedede; stroke-opacity: 0.65; stroke-width: 0.5"/>
     </g>
     <g id="line2d_49">
      <g>
       <use xlink:href="#mc4db414a71" x="266.675116" y="48.297" style="stroke: #000000; stroke-width: 0.7"/>
      </g>
     </g>
    </g>
   </g>
   <g id="line2d_50">
    <path d="M 266.675116 159.288873 
L 268.030384 159.341678 
L 269.385652 158.827775 
L 270.740919 157.578699 
L 272.096187 156.658602 
L 273.451455 156.314301 
L 276.16199 155.066162 
L 278.872525 155.233635 
L 282.938328 151.92686 
L 284.293596 152.108965 
L 285.648864 150.937454 
L 287.004131 150.481434 
L 288.359399 151.204188 
L 291.069934 153.832609 
L 293.78047 158.648456 
L 295.135737 158.443233 
L 296.491005 159.025296 
L 297.846273 158.272954 
L 299.201541 157.729958 
L 300.556808 157.83654 
L 301.912076 157.307325 
L 303.267344 156.993644 
L 304.622611 155.840526 
L 307.333147 154.569788 
L 308.688414 153.66401 
L 310.043682 153.478658 
L 311.39895 154.885937 
L 314.109485 152.272729 
L 315.464753 150.548528 
L 316.82002 150.909226 
L 318.175288 150.052378 
L 320.885823 148.887448 
L 322.241091 147.87982 
L 323.596359 148.359519 
L 324.951626 149.617697 
L 326.306894 150.354695 
L 327.662162 152.089287 
L 329.017429 152.676534 
L 331.727965 152.209558 
L 333.083232 152.366651 
L 334.4385 152.303981 
L 335.793768 152.615894 
L 337.149035 152.005426 
L 338.504303 151.737499 
L 339.859571 150.578788 
L 341.214838 150.393461 
L 342.570106 150.684213 
L 343.925374 151.184017 
L 345.280641 150.528611 
L 346.635909 150.316745 
L 347.991177 148.536673 
L 349.346445 148.313123 
L 352.05698 148.364456 
L 353.412248 148.004232 
L 354.767515 148.54476 
L 356.122783 148.288907 
L 357.478051 148.28484 
L 360.188586 151.216268 
L 361.543854 151.60088 
L 362.899121 150.550898 
L 364.254389 151.935016 
L 365.609657 151.414042 
L 366.964924 151.393361 
L 368.320192 151.974095 
L 369.67546 151.572904 
L 371.030727 151.640647 
L 372.385995 150.464487 
L 373.741263 150.30565 
L 375.09653 149.859632 
L 376.451798 150.310587 
L 377.807066 150.400076 
L 379.162333 149.396348 
L 380.517601 148.143616 
L 381.872869 148.571438 
L 383.228136 148.068809 
L 385.938672 147.566319 
L 387.293939 149.51971 
L 388.649207 151.109604 
L 390.004475 153.310728 
L 391.359742 154.631085 
L 392.71501 155.133098 
L 394.070278 155.911989 
L 395.425545 155.1863 
L 396.780813 156.085153 
L 398.136081 154.953543 
L 400.846616 155.220475 
L 403.557152 154.212813 
L 404.912419 153.535689 
L 406.267687 153.172972 
L 407.622955 153.148312 
L 408.978222 152.64947 
L 411.688758 151.026527 
L 413.044025 149.815879 
L 414.399293 149.894345 
L 415.754561 148.9423 
L 417.109828 148.422374 
L 418.465096 149.123213 
L 419.820364 151.442329 
L 421.175631 153.348069 
L 422.530899 156.485973 
L 423.886167 157.623706 
L 425.241434 157.759347 
L 426.596702 158.097878 
L 427.95197 158.008059 
L 429.307237 158.551616 
L 432.017773 158.116387 
L 433.37304 157.73404 
L 434.728308 157.078245 
L 437.438843 154.680344 
L 440.149379 153.852938 
L 441.504646 154.747948 
L 442.859914 154.005765 
L 444.215182 152.780617 
L 445.57045 151.239813 
L 446.925717 151.870398 
L 448.280985 150.497275 
L 450.99152 151.343774 
L 452.346788 152.903457 
L 455.057323 156.630005 
L 456.412591 158.402645 
L 457.767859 159.216954 
L 459.123126 159.13999 
L 460.478394 159.417991 
L 461.833662 158.856439 
L 463.188929 158.104371 
L 464.544197 157.955409 
L 468.61 156.159166 
L 468.61 156.159166 
" clip-path="url(#p674db9e49b)" style="fill: none; stroke: #0072b2; stroke-width: 1.25; stroke-linecap: square"/>
   </g>
   <g id="line2d_51">
    <path d="M 266.675116 110.293688 
L 268.030384 110.320463 
L 269.385652 112.154857 
L 270.740919 116.145887 
L 272.096187 118.933945 
L 273.451455 120.180204 
L 274.806722 122.201865 
L 276.16199 123.999725 
L 278.872525 123.713839 
L 280.227793 126.274442 
L 282.938328 130.991242 
L 284.293596 130.655942 
L 285.648864 132.986358 
L 287.004131 133.862463 
L 288.359399 132.46748 
L 291.069934 127.051817 
L 292.425202 121.705402 
L 293.78047 114.287568 
L 295.135737 114.96653 
L 296.491005 113.111621 
L 297.846273 115.49721 
L 299.201541 117.122085 
L 300.556808 116.744323 
L 301.912076 118.295642 
L 303.267344 119.240668 
L 304.622611 122.452282 
L 307.333147 125.427092 
L 308.688414 127.439138 
L 310.043682 127.828311 
L 311.39895 124.706738 
L 314.109485 130.341612 
L 315.464753 133.698963 
L 316.82002 133.024922 
L 318.175288 134.617718 
L 320.885823 136.642517 
L 322.241091 138.392376 
L 323.596359 137.549224 
L 324.951626 135.273087 
L 326.306894 133.842336 
L 327.662162 130.420458 
L 329.017429 129.178673 
L 330.372697 129.509027 
L 331.727965 129.988768 
L 333.083232 129.584973 
L 334.4385 129.637055 
L 335.793768 128.97445 
L 337.149035 130.169088 
L 338.504303 130.646106 
L 339.859571 132.870579 
L 341.214838 133.183631 
L 342.570106 132.592148 
L 343.925374 131.524966 
L 345.280641 132.749562 
L 346.635909 133.178325 
L 347.991177 136.361444 
L 349.346445 136.736747 
L 350.701712 136.627486 
L 352.05698 136.688777 
L 353.412248 137.210144 
L 354.767515 136.235313 
L 356.122783 136.626673 
L 357.478051 136.53213 
L 358.833318 133.770021 
L 360.188586 130.554307 
L 361.543854 129.479058 
L 362.899121 131.675833 
L 364.254389 128.191962 
L 365.609657 129.239443 
L 366.964924 129.152712 
L 368.320192 127.661709 
L 369.67546 128.527002 
L 371.030727 128.2718 
L 372.385995 130.918207 
L 373.741263 131.130182 
L 375.09653 132.018857 
L 376.451798 130.920974 
L 377.807066 130.651118 
L 379.162333 132.823621 
L 380.517601 135.384567 
L 381.872869 134.445643 
L 383.228136 135.459498 
L 384.583404 136.084228 
L 385.938672 136.439156 
L 387.293939 132.200216 
L 388.649207 128.478541 
L 390.004475 122.936092 
L 391.359742 119.343689 
L 392.71501 117.876062 
L 394.070278 115.585958 
L 395.425545 117.528907 
L 396.780813 114.909974 
L 398.136081 117.956771 
L 400.846616 117.0829 
L 403.557152 119.772152 
L 404.912419 121.415025 
L 406.267687 122.321676 
L 407.622955 122.289949 
L 408.978222 123.508496 
L 410.33349 125.329005 
L 411.688758 127.377104 
L 413.044025 130.125523 
L 414.399293 129.916387 
L 415.754561 131.968433 
L 417.109828 133.031309 
L 418.465096 131.467595 
L 419.820364 126.162072 
L 421.175631 121.433012 
L 422.530899 112.859086 
L 423.886167 109.422712 
L 425.241434 108.978923 
L 426.596702 107.897519 
L 427.95197 108.204702 
L 429.307237 106.554349 
L 430.662505 107.102367 
L 432.017773 107.937746 
L 433.37304 109.166135 
L 434.728308 111.19445 
L 436.083576 114.892974 
L 437.438843 118.036836 
L 440.149379 120.239865 
L 441.504646 117.850634 
L 442.859914 119.873187 
L 444.215182 123.060216 
L 445.57045 126.883269 
L 446.925717 125.468339 
L 448.280985 128.802508 
L 449.636253 127.761492 
L 450.99152 126.906279 
L 452.346788 123.189658 
L 456.412591 108.142308 
L 457.767859 105.696342 
L 459.123126 106.07513 
L 460.478394 105.434986 
L 461.833662 107.435034 
L 463.188929 109.94549 
L 464.544197 110.53826 
L 467.254732 114.681071 
L 468.61 116.190511 
L 468.61 116.190511 
" clip-path="url(#p674db9e49b)" style="fill: none; stroke-dasharray: 4.625,2; stroke-dashoffset: 0; stroke: #009e73; stroke-width: 1.25"/>
   </g>
   <g id="line2d_52">
    <path d="M 266.675116 79.96342 
L 268.030384 79.883853 
L 269.385652 78.563367 
L 270.740919 75.821413 
L 272.096187 73.953452 
L 273.451455 73.051492 
L 274.806722 71.666542 
L 276.16199 70.480116 
L 278.872525 70.598529 
L 280.227793 69.157733 
L 282.938328 66.627898 
L 284.293596 66.781098 
L 285.648864 65.622174 
L 287.004131 65.202117 
L 288.359399 65.874326 
L 289.714667 67.173532 
L 291.069934 68.661569 
L 292.425202 71.688677 
L 293.78047 76.609961 
L 295.135737 76.136242 
L 296.491005 77.409078 
L 297.846273 75.775835 
L 299.201541 74.69396 
L 300.556808 74.965142 
L 301.912076 73.943027 
L 303.267344 73.311683 
L 304.622611 71.253205 
L 307.333147 69.549112 
L 308.688414 68.442863 
L 310.043682 68.239028 
L 311.39895 69.953323 
L 315.464753 65.298517 
L 316.82002 65.61185 
L 318.175288 64.875899 
L 320.885823 64.016023 
L 322.241091 63.273796 
L 323.596359 63.637252 
L 324.951626 64.655208 
L 326.306894 65.348963 
L 327.662162 67.036255 
L 329.017429 67.690788 
L 331.727965 67.347669 
L 333.083232 67.594376 
L 334.4385 67.604967 
L 335.793768 67.955659 
L 337.149035 67.371489 
L 338.504303 67.162398 
L 339.859571 66.096636 
L 341.214838 65.968908 
L 342.570106 66.269642 
L 343.925374 66.837011 
L 345.280641 66.267824 
L 346.635909 66.050925 
L 347.991177 64.647878 
L 349.346445 64.49613 
L 350.701712 64.553928 
L 353.412248 64.331618 
L 354.767515 64.765925 
L 356.122783 64.630423 
L 357.478051 64.72903 
L 358.833318 66.011025 
L 360.188586 67.775422 
L 361.543854 68.466062 
L 362.899121 67.319269 
L 364.254389 69.419022 
L 365.609657 68.892506 
L 366.964924 68.99993 
L 368.320192 69.910196 
L 369.67546 69.446091 
L 371.030727 69.633547 
L 372.385995 68.163298 
L 373.741263 68.110168 
L 375.09653 67.6675 
L 376.451798 68.314436 
L 377.807066 68.494817 
L 380.517601 66.017812 
L 381.872869 66.528924 
L 383.228136 66.01769 
L 384.583404 65.697471 
L 385.938672 65.540522 
L 388.649207 69.957847 
L 390.004475 73.299185 
L 391.359742 75.571235 
L 392.71501 76.536837 
L 394.070278 78.048051 
L 395.425545 76.830785 
L 396.780813 78.55088 
L 398.136081 76.635689 
L 400.846616 77.242614 
L 404.912419 74.595275 
L 406.267687 74.05136 
L 407.622955 74.107739 
L 408.978222 73.388034 
L 411.688758 71.142377 
L 413.044025 69.604615 
L 414.399293 69.73526 
L 415.754561 68.635265 
L 417.109828 68.092314 
L 418.465096 68.955195 
L 421.175631 74.764922 
L 422.530899 80.200934 
L 423.886167 82.499587 
L 425.241434 82.807718 
L 426.596702 83.550589 
L 427.95197 83.333247 
L 429.307237 84.440029 
L 430.662505 84.056057 
L 432.017773 83.491871 
L 433.37304 82.645824 
L 434.728308 81.273305 
L 436.083576 78.840625 
L 437.438843 76.828822 
L 440.149379 75.45321 
L 441.504646 76.947413 
L 442.859914 75.667048 
L 444.215182 73.705159 
L 445.57045 71.422907 
L 446.925717 72.207252 
L 448.280985 70.246217 
L 450.99152 71.295944 
L 452.346788 73.452885 
L 455.057323 79.570554 
L 456.412591 83.001052 
L 457.767859 84.632697 
L 459.123126 84.330876 
L 460.478394 84.693024 
L 461.833662 83.254534 
L 463.188929 81.496137 
L 464.544197 81.052326 
L 467.254732 78.214315 
L 468.61 77.196327 
L 468.61 77.196327 
" clip-path="url(#p674db9e49b)" style="fill: none; stroke-dasharray: 8,2,1.25,2; stroke-dashoffset: 0; stroke: #d55e00; stroke-width: 1.25"/>
   </g>
   <g id="patch_6">
    <path d="M 266.675116 178.532 
L 266.675116 44.576 
" style="fill: none; stroke: #000000; stroke-width: 0.8; stroke-linejoin: miter; stroke-linecap: square"/>
   </g>
   <g id="patch_7">
    <path d="M 266.675116 178.532 
L 468.61 178.532 
" style="fill: none; stroke: #000000; stroke-width: 0.8; stroke-linejoin: miter; stroke-linecap: square"/>
   </g>
   <g id="text_26">
    <text style="font-weight: 700; font-size: 8px; font-family: 'Times New Roman'; text-anchor: start; fill: #111111" x="257.675116" y="38.849437" transform="rotate(-0 257.675116 38.849437)">b</text>
   </g>
   <g id="text_27">
    <text style="font-weight: 700; font-size: 8px; font-family: 'Times New Roman'; text-anchor: middle" x="367.642558" y="34.576" transform="rotate(-0 367.642558 34.576)">GÉANT</text>
   </g>
  </g>
  <g id="legend_1">
   <g id="line2d_53">
    <path d="M 182.119 13.110938 
L 188.619 13.110938 
L 195.119 13.110938 
" style="fill: none; stroke: #0072b2; stroke-width: 1.25; stroke-linecap: square"/>
   </g>
   <g id="text_28">
    <!-- $\alpha_1$ -->
    <g transform="translate(200.319 15.385938)">
     <text>
      <tspan x="0" y="-0.34375" style="font-style: oblique; font-size: 6.5px; font-family: 'DejaVu Sans'">α</tspan>
      <tspan x="4.284668" y="0.631247" style="font-size: 4.55px; font-family: 'DejaVu Sans'">1</tspan>
     </text>
    </g>
   </g>
   <g id="line2d_54">
    <path d="M 219.429 13.110938 
L 225.929 13.110938 
L 232.429 13.110938 
" style="fill: none; stroke-dasharray: 4.625,2; stroke-dashoffset: 0; stroke: #009e73; stroke-width: 1.25"/>
   </g>
   <g id="text_29">
    <!-- $\alpha_2$ -->
    <g transform="translate(237.629 15.385938)">
     <text>
      <tspan x="0" y="-0.34375" style="font-style: oblique; font-size: 6.5px; font-family: 'DejaVu Sans'">α</tspan>
      <tspan x="4.284668" y="0.631247" style="font-size: 4.55px; font-family: 'DejaVu Sans'">2</tspan>
     </text>
    </g>
   </g>
   <g id="line2d_55">
    <path d="M 256.739 13.110938 
L 263.239 13.110938 
L 269.739 13.110938 
" style="fill: none; stroke-dasharray: 8,2,1.25,2; stroke-dashoffset: 0; stroke: #d55e00; stroke-width: 1.25"/>
   </g>
   <g id="text_30">
    <!-- $\alpha_4$ -->
    <g transform="translate(274.939 15.385938)">
     <text>
      <tspan x="0" y="-0.34375" style="font-style: oblique; font-size: 6.5px; font-family: 'DejaVu Sans'">α</tspan>
      <tspan x="4.284668" y="0.631247" style="font-size: 4.55px; font-family: 'DejaVu Sans'">4</tspan>
     </text>
    </g>
   </g>
  </g>
 </g>
 <defs>
  <clipPath id="pe8fd66aab3">
   <rect x="34.45" y="44.576" width="201.934884" height="133.956"/>
  </clipPath>
  <clipPath id="p674db9e49b">
   <rect x="266.675116" y="44.576" width="201.934884" height="133.956"/>
  </clipPath>
 </defs>
</svg>
