<?xml version="1.0" encoding="utf-8" standalone="no"?>
<!DOCTYPE svg PUBLIC "-//W3C//DTD SVG 1.1//EN"
  "http://www.w3.org/Graphics/SVG/1.1/DTD/svg11.dtd">
<svg xmlns:xlink="http://www.w3.org/1999/xlink" width="490.799518pt" height="199.19952pt" viewBox="0 0 490.799518 199.19952" xmlns="http://www.w3.org/2000/svg" version="1.1">
 <metadata>
  <rdf:RDF xmlns:dc="http://purl.org/dc/elements/1.1/" xmlns:cc="http://creativecommons.org/ns#" xmlns:rdf="http://www.w3.org/1999/02/22-rdf-syntax-ns#">
   <cc:Work>
    <dc:type rdf:resource="http://purl.org/dc/dcmitype/StillImage"/>
    <dc:date>2026-09-16T12:21:04.069739</dc:date>
    <dc:format>image/svg+xml</dc:format>
    <dc:creator>
     <cc:Agent>
      <dc:title>Matplotlib v3.11.1, https://matplotlib.org/</dc:title>
     </cc:Agent>
    </dc:creator>
   </cc:Work>
  </rdf:RDF>
 </metadata>
 <defs>
  <style type="text/css">*{stroke-linejoin: round; stroke-linecap: butt}</style>
 </defs>
 <g id="figure_1">
  <g id="patch_1">
   <path d="M 0 199.19952 
L 490.799518 199.19952 
L 490.799518 0 
L 0 0 
z
" style="fill: #ffffff"/>
  </g>
  <g id="axes_1">
   <g id="patch_2">
    <path d="M 34.258352 170.135262 
L 242.399518 170.135262 
L 242.399518 20.934375 
L 34.258352 20.934375 
z
" style="fill: #ffffff"/>
   </g>
   <g id="matplotlib.axis_1">
    <g id="xtick_1">
     <g id="line2d_1">
      <defs>
       <path id="m7734990fa3" d="M 0 0 
L 0 -3 
" style="stroke: #000000; stroke-width: 0.7"/>
      </defs>
      <g>
       <use xlink:href="#m7734990fa3" x="43.719314" y="170.135262" style="stroke: #000000; stroke-width: 0.7"/>
      </g>
     </g>
     <g id="text_1">
      <text style="font-size: 7px; font-family: 'Times New Roman'; text-anchor: middle" x="43.719314" y="178.488778" transform="rotate(-0 43.719314 178.488778)">0</text>
     </g>
    </g>
    <g id="xtick_2">
     <g id="line2d_2">
      <g>
       <use xlink:href="#m7734990fa3" x="67.022176" y="170.135262" style="stroke: #000000; stroke-width: 0.7"/>
      </g>
     </g>
     <g id="text_2">
      <text style="font-size: 7px; font-family: 'Times New Roman'; text-anchor: middle" x="67.022176" y="178.488778" transform="rotate(-0 67.022176 178.488778)">100</text>
     </g>
    </g>
    <g id="xtick_3">
     <g id="line2d_3">
      <g>
       <use xlink:href="#m7734990fa3" x="90.325039" y="170.135262" style="stroke: #000000; stroke-width: 0.7"/>
      </g>
     </g>
     <g id="text_3">
      <text style="font-size: 7px; font-family: 'Times New Roman'; text-anchor: middle" x="90.325039" y="178.488778" transform="rotate(-0 90.325039 178.488778)">200</text>
     </g>
    </g>
    <g id="xtick_4">
     <g id="line2d_4">
      <g>
       <use xlink:href="#m7734990fa3" x="113.627901" y="170.135262" style="stroke: #000000; stroke-width: 0.7"/>
      </g>
     </g>
     <g id="text_4">
      <text style="font-size: 7px; font-family: 'Times New Roman'; text-anchor: middle" x="113.627901" y="178.488778" transform="rotate(-0 113.627901 178.488778)">300</text>
     </g>
    </g>
    <g id="xtick_5">
     <g id="line2d_5">
      <g>
       <use xlink:href="#m7734990fa3" x="136.930763" y="170.135262" style="stroke: #000000; stroke-width: 0.7"/>
      </g>
     </g>
     <g id="text_5">
      <text style="font-size: 7px; font-family: 'Times New Roman'; text-anchor: middle" x="136.930763" y="178.488778" transform="rotate(-0 136.930763 178.488778)">400</text>
     </g>
    </g>
    <g id="xtick_6">
     <g id="line2d_6">
      <g>
       <use xlink:href="#m7734990fa3" x="160.233626" y="170.135262" style="stroke: #000000; stroke-width: 0.7"/>
      </g>
     </g>
     <g id="text_6">
      <text style="font-size: 7px; font-family: 'Times New Roman'; text-anchor: middle" x="160.233626" y="178.488778" transform="rotate(-0 160.233626 178.488778)">500</text>
     </g>
    </g>
    <g id="xtick_7">
     <g id="line2d_7">
      <g>
       <use xlink:href="#m7734990fa3" x="183.536488" y="170.135262" style="stroke: #000000; stroke-width: 0.7"/>
      </g>
     </g>
     <g id="text_7">
      <text style="font-size: 7px; font-family: 'Times New Roman'; text-anchor: middle" x="183.536488" y="178.488778" transform="rotate(-0 183.536488 178.488778)">600</text>
     </g>
    </g>
    <g id="xtick_8">
     <g id="line2d_8">
      <g>
       <use xlink:href="#m7734990fa3" x="206.83935" y="170.135262" style="stroke: #000000; stroke-width: 0.7"/>
      </g>
     </g>
     <g id="text_8">
      <text style="font-size: 7px; font-family: 'Times New Roman'; text-anchor: middle" x="206.83935" y="178.488778" transform="rotate(-0 206.83935 178.488778)">700</text>
     </g>
    </g>
    <g id="xtick_9">
     <g id="line2d_9">
      <g>
       <use xlink:href="#m7734990fa3" x="230.142213" y="170.135262" style="stroke: #000000; stroke-width: 0.7"/>
      </g>
     </g>
     <g id="text_9">
      <text style="font-size: 7px; font-family: 'Times New Roman'; text-anchor: middle" x="230.142213" y="178.488778" transform="rotate(-0 230.142213 178.488778)">800</text>
     </g>
    </g>
    <g id="text_10">
     <text style="font-size: 8px; font-family: 'SimSun'; text-anchor: middle" x="138.328935" y="190.87452" transform="rotate(-0 138.328935 190.87452)">测试窗口</text>
    </g>
   </g>
   <g id="matplotlib.axis_2">
    <g id="ytick_1">
     <g id="line2d_10">
      <path d="M 34.258352 151.626278 
L 242.399518 151.626278 
" clip-path="url(#pffe56ed85e)" style="fill: none; stroke-dasharray: 1.665,0.72; stroke-dashoffset: 0; stroke: #dddddd; stroke-width: 0.45"/>
     </g>
     <g id="line2d_11">
      <defs>
       <path id="m6bcaf5dd8e" d="M 0 0 
L 3 0 
" style="stroke: #000000; stroke-width: 0.7"/>
      </defs>
      <g>
       <use xlink:href="#m6bcaf5dd8e" x="34.258352" y="151.626278" style="stroke: #000000; stroke-width: 0.7"/>
      </g>
     </g>
     <g id="text_11">
      <text style="font-size: 7px; font-family: 'Times New Roman'; text-anchor: end" x="30.758352" y="154.053036" transform="rotate(-0 30.758352 154.053036)">0.2</text>
     </g>
    </g>
    <g id="ytick_2">
     <g id="line2d_12">
      <path d="M 34.258352 119.923349 
L 242.399518 119.923349 
" clip-path="url(#pffe56ed85e)" style="fill: none; stroke-dasharray: 1.665,0.72; stroke-dashoffset: 0; stroke: #dddddd; stroke-width: 0.45"/>
     </g>
     <g id="line2d_13">
      <g>
       <use xlink:href="#m6bcaf5dd8e" x="34.258352" y="119.923349" style="stroke: #000000; stroke-width: 0.7"/>
      </g>
     </g>
     <g id="text_12">
      <text style="font-size: 7px; font-family: 'Times New Roman'; text-anchor: end" x="30.758352" y="122.350106" transform="rotate(-0 30.758352 122.350106)">0.3</text>
     </g>
    </g>
    <g id="ytick_3">
     <g id="line2d_14">
      <path d="M 34.258352 88.220419 
L 242.399518 88.220419 
" clip-path="url(#pffe56ed85e)" style="fill: none; stroke-dasharray: 1.665,0.72; stroke-dashoffset: 0; stroke: #dddddd; stroke-width: 0.45"/>
     </g>
     <g id="line2d_15">
      <g>
       <use xlink:href="#m6bcaf5dd8e" x="34.258352" y="88.220419" style="stroke: #000000; stroke-width: 0.7"/>
      </g>
     </g>
     <g id="text_13">
      <text style="font-size: 7px; font-family: 'Times New Roman'; text-anchor: end" x="30.758352" y="90.647177" transform="rotate(-0 30.758352 90.647177)">0.4</text>
     </g>
    </g>
    <g id="ytick_4">
     <g id="line2d_16">
      <path d="M 34.258352 56.51749 
L 242.399518 56.51749 
" clip-path="url(#pffe56ed85e)" style="fill: none; stroke-dasharray: 1.665,0.72; stroke-dashoffset: 0; stroke: #dddddd; stroke-width: 0.45"/>
     </g>
     <g id="line2d_17">
      <g>
       <use xlink:href="#m6bcaf5dd8e" x="34.258352" y="56.51749" style="stroke: #000000; stroke-width: 0.7"/>
      </g>
     </g>
     <g id="text_14">
      <text style="font-size: 7px; font-family: 'Times New Roman'; text-anchor: end" x="30.758352" y="58.944248" transform="rotate(-0 30.758352 58.944248)">0.5</text>
     </g>
    </g>
    <g id="ytick_5">
     <g id="line2d_18">
      <path d="M 34.258352 24.814561 
L 242.399518 24.814561 
" clip-path="url(#pffe56ed85e)" style="fill: none; stroke-dasharray: 1.665,0.72; stroke-dashoffset: 0; stroke: #dddddd; stroke-width: 0.45"/>
     </g>
     <g id="line2d_19">
      <g>
       <use xlink:href="#m6bcaf5dd8e" x="34.258352" y="24.814561" style="stroke: #000000; stroke-width: 0.7"/>
      </g>
     </g>
     <g id="text_15">
      <text style="font-size: 7px; font-family: 'Times New Roman'; text-anchor: end" x="30.758352" y="27.241318" transform="rotate(-0 30.758352 27.241318)">0.6</text>
     </g>
    </g>
    <g id="text_16">
     <text style="font-size: 8px; font-family: 'SimSun'; text-anchor: middle" x="16.883352" y="95.534819" transform="rotate(-90 16.883352 95.534819)">三种子平均权重</text>
    </g>
   </g>
   <g id="line2d_20">
    <path d="M 43.719314 139.285821 
L 43.952342 139.836324 
L 44.185371 141.521132 
L 44.4184 137.667326 
L 44.651428 136.699719 
L 44.884457 135.223277 
L 45.117486 135.080608 
L 45.350514 132.001984 
L 45.583543 132.131379 
L 45.816571 130.481454 
L 46.0496 135.254708 
L 46.282629 136.805007 
L 46.515657 136.222821 
L 46.748686 137.79437 
L 46.981715 137.437816 
L 47.214743 139.465295 
L 47.447772 142.525919 
L 47.6808 139.056022 
L 47.913829 139.220177 
L 48.146858 144.775138 
L 48.379886 141.655552 
L 48.612915 134.737869 
L 49.078972 138.867059 
L 49.545029 132.793451 
L 49.778058 133.478157 
L 50.011087 128.931699 
L 50.477144 132.539433 
L 50.710173 127.869682 
L 50.943201 130.884656 
L 51.17623 126.855471 
L 51.409258 127.271453 
L 51.642287 127.123249 
L 51.875316 129.666237 
L 52.108344 135.575439 
L 52.341373 137.293177 
L 52.574402 136.764305 
L 52.80743 138.332119 
L 53.040459 140.885798 
L 53.273487 141.155288 
L 53.506516 140.521731 
L 53.739545 138.957647 
L 54.205602 138.606711 
L 54.43863 137.837863 
L 54.671659 141.306124 
L 54.904688 140.20275 
L 55.137716 137.615967 
L 55.370745 139.572767 
L 55.603774 133.710584 
L 55.836802 134.464948 
L 56.069831 132.014007 
L 56.302859 135.40635 
L 56.535888 131.932677 
L 56.768917 130.293041 
L 57.468003 146.56626 
L 57.701031 148.66199 
L 57.93406 149.146662 
L 58.167088 151.441442 
L 58.633146 152.9646 
L 58.866174 152.9712 
L 59.099203 151.891093 
L 59.798289 144.560027 
L 60.031317 142.769256 
L 60.264346 143.161403 
L 60.497375 142.890096 
L 60.730403 142.141328 
L 60.963432 138.968017 
L 61.196461 138.086357 
L 61.429489 136.662438 
L 61.662518 137.769524 
L 61.895546 135.005501 
L 62.128575 135.784921 
L 62.361604 135.54342 
L 63.06069 147.92879 
L 63.526747 150.841335 
L 63.759775 151.188393 
L 63.992804 150.959706 
L 64.225833 152.38322 
L 64.458861 152.231745 
L 64.69189 151.468161 
L 65.157947 148.05998 
L 65.390976 144.393907 
L 65.624004 142.525945 
L 65.857033 144.268306 
L 66.090062 143.936109 
L 66.32309 144.020336 
L 66.789148 138.714923 
L 67.022176 139.03563 
L 67.255205 141.002407 
L 67.721262 137.866612 
L 67.954291 138.154098 
L 68.187319 140.147073 
L 68.653377 148.874365 
L 69.119434 151.873088 
L 69.352462 150.725393 
L 69.585491 152.248634 
L 70.051548 153.147864 
L 70.284577 151.679217 
L 70.983663 141.653443 
L 71.216691 142.366273 
L 71.44972 140.614721 
L 71.682749 143.128188 
L 71.915777 139.370973 
L 72.148806 141.807789 
L 72.381835 140.97432 
L 72.614863 138.011996 
L 72.847892 138.39326 
L 73.546978 131.127677 
L 74.246064 148.40028 
L 74.479092 150.720679 
L 74.712121 150.918897 
L 74.945149 152.370643 
L 75.411207 153.488163 
L 75.644235 153.044852 
L 75.877264 151.785989 
L 76.343321 147.012833 
L 76.57635 143.32101 
L 76.809378 143.732738 
L 77.042407 143.297762 
L 77.275436 140.927863 
L 77.508464 142.4333 
L 77.741493 140.98808 
L 77.974522 136.876741 
L 78.20755 137.560922 
L 78.440579 135.247924 
L 78.673607 134.093553 
L 78.906636 136.183598 
L 79.139665 136.418776 
L 79.372693 139.638866 
L 79.83875 148.620178 
L 80.071779 151.130325 
L 80.770865 152.291475 
L 81.236922 151.148694 
L 81.469951 149.770749 
L 81.702979 147.653029 
L 82.169037 137.351516 
L 82.402065 140.263174 
L 82.635094 139.025603 
L 82.868123 138.633555 
L 83.101151 140.686082 
L 83.33418 137.69166 
L 83.567208 137.802238 
L 83.800237 133.682482 
L 84.033266 135.37905 
L 84.499323 128.968588 
L 84.732352 129.921988 
L 84.96538 131.732532 
L 85.198409 131.337906 
L 85.431437 135.610126 
L 85.664466 136.946558 
L 85.897495 139.285835 
L 86.130523 138.026287 
L 86.363552 139.851796 
L 86.596581 138.965919 
L 86.829609 140.460086 
L 87.062638 140.902508 
L 87.295666 140.552535 
L 87.528695 141.206965 
L 87.761724 138.705367 
L 88.227781 141.52542 
L 88.46081 138.506141 
L 88.693838 138.131304 
L 88.926867 134.569631 
L 89.159895 136.369891 
L 89.392924 134.095761 
L 89.625953 135.756325 
L 89.858981 134.764938 
L 90.09201 132.665269 
L 90.325039 133.036401 
L 90.558067 131.499845 
L 90.791096 132.478881 
L 91.024124 132.850496 
L 91.257153 137.386528 
L 91.490182 136.342337 
L 91.72321 136.99941 
L 91.956239 136.256522 
L 92.422296 139.289245 
L 92.655325 140.69072 
L 92.888353 140.241245 
L 93.354411 136.892717 
L 93.587439 140.803539 
L 93.820468 140.449518 
L 94.053497 141.538467 
L 94.286525 141.842808 
L 94.985611 137.79525 
L 95.21864 138.379973 
L 95.451668 137.514372 
L 95.684697 134.989979 
L 95.917726 137.353252 
L 96.150754 143.508566 
L 96.383783 145.226164 
L 96.616811 149.164437 
L 97.082869 151.977911 
L 97.315897 151.35103 
L 97.548926 152.741323 
L 97.781955 152.994423 
L 98.248012 151.97199 
L 98.48104 149.640238 
L 98.714069 148.925561 
L 98.947098 145.735451 
L 99.180126 144.611219 
L 99.413155 145.407061 
L 99.646184 144.009502 
L 100.112241 138.349137 
L 100.345269 138.376044 
L 100.578298 141.636553 
L 100.811327 139.606727 
L 101.044355 134.676157 
L 101.277384 135.983679 
L 101.510413 131.665453 
L 101.743441 135.513619 
L 101.97647 144.653477 
L 102.442527 151.221698 
L 102.675556 151.797941 
L 102.908584 151.587651 
L 103.141613 153.455159 
L 103.374641 152.391656 
L 103.60767 152.019198 
L 104.073727 149.868096 
L 104.539785 146.419717 
L 105.005842 144.720233 
L 105.23887 144.931748 
L 105.471899 143.590879 
L 105.704928 143.400135 
L 105.937956 141.119366 
L 106.170985 140.922431 
L 106.404014 139.430207 
L 106.870071 139.246932 
L 107.103099 137.931258 
L 107.336128 138.32117 
L 107.802185 149.302129 
L 108.268243 152.689462 
L 108.501271 152.9963 
L 108.7343 154.015291 
L 108.967328 154.078851 
L 109.200357 152.524847 
L 109.433386 151.979623 
L 109.666414 149.294834 
L 109.899443 148.673949 
L 110.132472 145.111307 
L 110.3655 145.297548 
L 110.598529 145.236009 
L 110.831557 144.432633 
L 111.064586 145.105687 
L 111.297615 141.92835 
L 111.530643 140.303483 
L 111.763672 139.87658 
L 111.996701 143.110548 
L 112.229729 141.419158 
L 112.462758 138.719959 
L 112.695786 137.834162 
L 112.928815 135.929309 
L 113.86093 143.215336 
L 114.093958 142.20551 
L 114.326987 144.296466 
L 114.560015 141.964645 
L 114.793044 144.46212 
L 115.026073 145.421263 
L 115.259101 144.686377 
L 115.49213 141.717041 
L 115.725159 27.716234 
L 116.657273 31.82194 
L 117.589388 36.64903 
L 119.220588 46.132866 
L 121.084817 58.08868 
L 121.317846 79.845449 
L 121.783903 79.892911 
L 122.016931 79.64281 
L 122.24996 79.859092 
L 122.482989 78.959689 
L 122.716017 78.555728 
L 122.949046 78.443826 
L 123.182075 79.28352 
L 123.415103 78.847967 
L 123.648132 78.170631 
L 123.88116 77.977163 
L 124.114189 77.535573 
L 125.046304 79.302879 
L 125.279332 79.034043 
L 125.512361 79.610356 
L 125.745389 78.973061 
L 125.978418 79.665322 
L 126.211447 79.959716 
L 126.444475 79.728131 
L 126.677504 78.904159 
L 126.910532 79.032569 
L 127.842647 78.321488 
L 128.075676 77.566881 
L 128.308704 77.895959 
L 128.541733 77.665943 
L 128.774761 78.230464 
L 129.00779 78.185808 
L 129.240819 78.000072 
L 129.706876 76.739615 
L 129.939905 76.936166 
L 130.405962 77.662941 
L 130.63899 78.7103 
L 130.872019 78.649974 
L 131.105048 79.113465 
L 131.338076 79.199166 
L 131.571105 79.897597 
L 131.804134 79.393532 
L 132.037162 79.875932 
L 132.270191 79.750334 
L 132.503219 79.041533 
L 132.736248 79.340005 
L 132.969277 79.934439 
L 133.202305 79.497686 
L 133.435334 79.916566 
L 133.668363 79.693301 
L 133.901391 78.800219 
L 134.13442 78.700046 
L 134.367448 78.246381 
L 134.600477 77.428969 
L 134.833506 78.005889 
L 135.066534 78.00638 
L 135.299563 78.933691 
L 135.998649 83.199607 
L 136.231677 83.330654 
L 136.464706 83.92535 
L 137.163792 87.452306 
L 137.396821 85.91473 
L 137.862878 81.829548 
L 138.095906 81.617039 
L 138.328935 83.556844 
L 138.561964 86.441971 
L 138.794992 86.78925 
L 139.26105 90.466808 
L 139.494078 90.602163 
L 139.727107 92.645751 
L 139.960135 92.574445 
L 140.193164 96.84182 
L 140.659221 99.358036 
L 140.89225 103.694609 
L 141.358307 117.876935 
L 142.290422 135.181825 
L 142.52345 137.755186 
L 142.989508 144.812329 
L 143.455565 150.976406 
L 143.688593 149.72734 
L 143.921622 147.183112 
L 144.154651 149.208422 
L 144.620708 147.832582 
L 144.853737 147.858166 
L 145.086765 147.279025 
L 145.319794 146.110712 
L 145.552822 145.905191 
L 145.785851 141.182305 
L 146.01888 140.215955 
L 146.251908 138.231993 
L 146.950994 149.346556 
L 147.417051 152.467076 
L 147.65008 152.05598 
L 148.116137 154.861673 
L 148.349166 155.282055 
L 148.582195 155.098817 
L 148.815223 153.176978 
L 149.048252 152.577916 
L 149.28128 147.554241 
L 149.514309 151.131021 
L 149.747338 151.193373 
L 150.213395 150.023036 
L 150.679452 148.107325 
L 150.912481 147.694383 
L 151.378538 144.071698 
L 151.611567 144.474795 
L 151.844595 143.84157 
L 152.077624 146.500038 
L 152.310652 151.204718 
L 152.77671 155.063359 
L 153.009738 154.603929 
L 153.242767 155.549811 
L 153.475796 154.719877 
L 153.708824 154.638638 
L 153.941853 155.767999 
L 154.174881 155.22818 
L 154.640939 151.678683 
L 154.873967 149.423136 
L 155.106996 150.178862 
L 155.340025 149.55878 
L 155.573053 149.974524 
L 156.03911 146.685153 
L 156.272139 146.849231 
L 156.505168 145.202315 
L 156.738196 144.365175 
L 156.971225 143.04213 
L 157.204254 139.585051 
L 157.437282 141.031534 
L 157.903339 149.622984 
L 158.136368 153.573085 
L 158.602425 155.226945 
L 158.835454 155.294158 
L 159.068483 156.312973 
L 159.301511 155.54661 
L 159.53454 156.388713 
L 159.767568 154.014693 
L 160.000597 153.281934 
L 160.699683 147.415249 
L 160.932712 148.503164 
L 161.16574 146.640205 
L 161.631797 145.499557 
L 161.864826 145.787773 
L 162.097855 141.827164 
L 162.330883 142.916935 
L 162.563912 141.028312 
L 162.796941 140.722451 
L 163.029969 136.757984 
L 163.262998 137.933965 
L 163.496026 137.309927 
L 163.729055 141.186919 
L 163.962084 142.669483 
L 164.428141 147.629692 
L 164.894198 150.138319 
L 165.127227 147.884055 
L 165.360255 147.225507 
L 165.593284 148.215075 
L 165.826313 147.024202 
L 166.059341 144.810701 
L 166.525399 148.602357 
L 166.758427 147.828736 
L 166.991456 146.113373 
L 167.224484 147.246788 
L 167.690542 143.393855 
L 167.92357 142.715323 
L 168.156599 143.955807 
L 168.389628 141.10155 
L 168.622656 140.772845 
L 168.855685 139.80027 
L 169.088713 139.539216 
L 170.020828 147.169445 
L 170.253857 146.982737 
L 170.719914 150.640915 
L 170.952942 150.476995 
L 171.185971 150.676488 
L 171.419 150.407033 
L 171.652028 149.204691 
L 171.885057 148.628784 
L 172.118086 148.979797 
L 172.351114 149.635851 
L 172.584143 149.530304 
L 173.283229 146.356778 
L 173.982314 143.530084 
L 174.215343 143.95812 
L 174.448372 145.608865 
L 174.6814 150.990112 
L 174.914429 151.376775 
L 175.147458 155.687713 
L 175.380486 157.155319 
L 175.613515 156.535795 
L 175.846543 156.986355 
L 176.079572 157.145589 
L 176.312601 156.327679 
L 176.545629 156.451701 
L 177.477744 151.448304 
L 177.710772 152.954717 
L 177.943801 151.520455 
L 178.17683 151.201504 
L 178.642887 148.479992 
L 178.875916 144.977752 
L 179.108944 143.315934 
L 179.341973 145.041648 
L 179.575001 142.685733 
L 179.80803 142.906148 
L 180.507116 153.824625 
L 180.740145 154.115719 
L 180.973173 156.858522 
L 181.206202 156.354843 
L 181.672259 157.813824 
L 181.905288 157.563077 
L 182.138316 157.026374 
L 183.070431 151.907509 
L 183.303459 152.137948 
L 183.536488 150.818357 
L 183.769517 150.205584 
L 184.002545 150.280707 
L 184.235574 147.881012 
L 184.468603 147.327472 
L 184.701631 146.069327 
L 184.93466 143.425641 
L 185.400717 142.476545 
L 185.633746 145.242977 
L 186.099803 153.19752 
L 186.56586 155.817389 
L 186.798889 155.728718 
L 187.264946 157.147905 
L 187.497975 155.381887 
L 187.731003 155.887021 
L 187.964032 154.84945 
L 188.197061 152.23643 
L 188.430089 152.027157 
L 188.663118 151.400696 
L 188.896146 151.92297 
L 189.129175 151.018198 
L 189.362204 150.579693 
L 189.828261 147.522391 
L 190.294318 145.825568 
L 190.760375 141.123689 
L 190.993404 140.330968 
L 191.69249 153.037199 
L 191.925519 154.761144 
L 192.158547 154.964583 
L 192.391576 155.455102 
L 192.624604 156.563319 
L 192.857633 155.438296 
L 193.090662 156.217804 
L 193.32369 155.575526 
L 194.255805 150.454869 
L 194.488833 151.061381 
L 194.721862 149.313097 
L 194.954891 148.600743 
L 195.187919 148.641153 
L 195.420948 147.881897 
L 195.653977 144.996985 
L 196.353062 141.386846 
L 196.586091 142.43024 
L 196.81912 144.138888 
L 197.285177 151.535028 
L 197.518206 154.302389 
L 197.751234 153.306945 
L 197.984263 154.234332 
L 198.217291 155.99423 
L 198.683349 153.907653 
L 198.916377 154.971789 
L 199.848492 148.261159 
L 200.08152 149.081199 
L 200.314549 147.60373 
L 200.547578 147.644805 
L 200.780606 146.624834 
L 201.013635 146.27892 
L 201.246663 146.359949 
L 201.479692 143.867387 
L 201.712721 143.48221 
L 201.945749 142.260492 
L 202.178778 139.007957 
L 202.411807 138.298447 
L 202.644835 138.907937 
L 202.877864 141.541855 
L 203.809978 145.219223 
L 204.043007 145.509114 
L 204.276036 146.272246 
L 204.509064 146.001519 
L 204.742093 147.004204 
L 204.975121 144.931306 
L 205.20815 144.387155 
L 205.441179 144.749086 
L 205.674207 146.085823 
L 205.907236 145.488109 
L 206.140265 145.543471 
L 206.373293 143.820751 
L 206.83935 145.573296 
L 207.072379 145.555579 
L 207.305408 143.7968 
L 207.771465 138.537559 
L 208.004494 136.63272 
L 208.237522 137.533316 
L 208.470551 139.907296 
L 208.703579 140.241574 
L 209.169637 145.993218 
L 209.402665 147.216758 
L 209.635694 147.666791 
L 209.868723 149.254402 
L 210.101751 147.94216 
L 210.33478 147.560689 
L 210.567808 148.424221 
L 210.800837 147.029229 
L 211.033866 148.328803 
L 211.266894 147.751352 
L 211.499923 148.404485 
L 211.732952 147.662919 
L 211.96598 148.161025 
L 212.665066 144.286529 
L 212.898095 144.327425 
L 213.131123 144.773873 
L 213.597181 140.744735 
L 214.063238 144.436031 
L 214.296266 145.690241 
L 214.529295 146.198548 
L 214.762324 149.169754 
L 215.228381 151.633036 
L 215.46141 151.233406 
L 215.694438 151.516169 
L 215.927467 151.333997 
L 216.160495 150.727148 
L 216.393524 151.06226 
L 216.626553 151.828886 
L 216.859581 152.149963 
L 217.09261 150.944426 
L 217.325639 151.37406 
L 217.558667 149.656135 
L 217.791696 148.947296 
L 218.024724 147.779165 
L 218.257753 145.550456 
L 218.490782 145.84596 
L 218.956839 142.523567 
L 219.422896 150.974198 
L 219.655925 154.413818 
L 220.121982 157.223629 
L 220.355011 157.169955 
L 220.821068 157.960463 
L 221.054097 157.627942 
L 221.287125 157.618486 
L 221.986211 153.149064 
L 222.21924 151.692259 
L 222.452268 152.086409 
L 222.685297 150.887232 
L 222.918325 151.072565 
L 224.083469 143.887112 
L 224.316497 140.635144 
L 224.782554 143.518128 
L 225.248612 152.966849 
L 225.48164 154.01802 
L 225.714669 155.825393 
L 225.947698 153.72753 
L 226.180726 153.271062 
L 226.413755 155.593219 
L 226.646783 154.771902 
L 226.879812 156.379301 
L 227.345869 152.601178 
L 227.578898 154.344879 
L 228.044955 152.039309 
L 228.277984 152.084074 
L 228.511012 153.565818 
L 228.744041 151.219917 
L 228.97707 151.073996 
L 229.443127 147.689526 
L 229.676156 147.658796 
L 230.142213 143.578888 
L 230.375241 146.781079 
L 230.841299 155.269664 
L 231.074327 156.526008 
L 231.307356 156.783021 
L 231.540385 156.783557 
L 231.773413 157.616997 
L 232.006442 157.373955 
L 232.23947 157.673291 
L 232.472499 157.230078 
L 232.938556 153.741032 
L 232.938556 153.741032 
" clip-path="url(#pffe56ed85e)" style="fill: none; stroke: #c9c9c9; stroke-width: 0.75; stroke-linecap: square"/>
   </g>
   <g id="line2d_21">
    <path d="M 43.719314 135.705505 
L 43.952342 135.576834 
L 44.185371 135.175238 
L 44.4184 136.089574 
L 45.117486 136.688358 
L 45.350514 137.383527 
L 45.583543 137.362317 
L 45.816571 137.728654 
L 46.0496 136.670612 
L 46.282629 136.326885 
L 46.515657 136.474122 
L 46.748686 136.126705 
L 46.981715 136.222756 
L 47.214743 135.763675 
L 47.447772 134.992453 
L 47.6808 135.885249 
L 47.913829 135.862236 
L 48.146858 134.398572 
L 48.379886 135.267217 
L 48.612915 136.908188 
L 49.078972 135.97794 
L 49.545029 137.372054 
L 49.778058 137.227355 
L 50.011087 138.217694 
L 50.477144 137.451901 
L 50.710173 138.457006 
L 50.943201 137.824549 
L 51.17623 138.681999 
L 51.409258 138.602328 
L 51.642287 138.643717 
L 51.875316 138.124811 
L 52.108344 136.852068 
L 52.341373 136.482478 
L 52.574402 136.618765 
L 52.80743 136.277563 
L 53.040459 135.663272 
L 53.273487 135.608827 
L 53.506516 135.798417 
L 53.739545 136.202094 
L 54.43863 136.486844 
L 54.671659 135.63596 
L 54.904688 135.941255 
L 55.137716 136.557059 
L 55.370745 136.116788 
L 55.603774 137.420372 
L 55.836802 137.258919 
L 56.069831 137.789034 
L 56.302859 137.057617 
L 56.535888 137.814176 
L 56.768917 138.1649 
L 57.701031 133.247047 
L 57.93406 133.099967 
L 58.167088 132.306016 
L 58.633146 131.763632 
L 58.866174 131.761084 
L 59.099203 132.1381 
L 59.56526 133.595834 
L 60.031317 135.160518 
L 60.264346 135.024533 
L 60.497375 135.118144 
L 60.730403 135.377538 
L 60.963432 136.289656 
L 61.429489 136.809185 
L 61.662518 136.563604 
L 61.895546 137.174491 
L 62.128575 137.006077 
L 62.361604 137.062279 
L 62.827661 134.820602 
L 63.06069 133.464437 
L 63.526747 132.525199 
L 63.759775 132.395941 
L 63.992804 132.477762 
L 64.225833 131.951998 
L 64.458861 132.000984 
L 64.69189 132.285757 
L 65.157947 133.427042 
L 65.624004 135.257401 
L 65.857033 134.65085 
L 66.090062 134.766388 
L 66.32309 134.740516 
L 66.789148 136.333748 
L 67.022176 136.256552 
L 67.255205 135.735337 
L 67.721262 136.50739 
L 67.954291 136.438779 
L 68.187319 135.959327 
L 68.653377 133.229859 
L 69.119434 132.300305 
L 69.352462 132.701559 
L 69.585491 132.203166 
L 70.051548 131.912038 
L 70.284577 132.443687 
L 70.983663 135.452178 
L 71.216691 135.253341 
L 71.44972 135.730161 
L 71.682749 135.020614 
L 71.915777 136.016558 
L 72.148806 135.391316 
L 72.381835 135.616534 
L 72.614863 136.311431 
L 72.847892 136.225498 
L 73.546978 137.831539 
L 74.246064 133.56293 
L 74.479092 132.869781 
L 74.712121 132.811129 
L 74.945149 132.289428 
L 75.411207 131.861023 
L 75.644235 132.016152 
L 75.877264 132.468952 
L 76.57635 134.833914 
L 76.809378 134.714353 
L 77.042407 134.832499 
L 77.275436 135.463448 
L 77.508464 135.068061 
L 77.741493 135.445679 
L 77.974522 136.404599 
L 78.20755 136.246914 
L 78.673607 137.031188 
L 78.906636 136.557574 
L 79.139665 136.497704 
L 79.372693 135.747261 
L 79.83875 133.548679 
L 80.071779 132.687983 
L 80.770865 132.272507 
L 81.236922 132.694817 
L 81.702979 133.811024 
L 82.169037 136.301141 
L 82.402065 135.625841 
L 82.635094 135.917621 
L 82.868123 136.013404 
L 83.101151 135.536437 
L 83.33418 136.237048 
L 83.567208 136.212563 
L 83.800237 137.148432 
L 84.033266 136.772936 
L 84.499323 138.180842 
L 84.732352 137.977311 
L 84.96538 137.587534 
L 85.198409 137.676973 
L 85.431437 136.73909 
L 85.664466 136.447914 
L 85.897495 135.920205 
L 86.130523 136.228023 
L 86.363552 135.819097 
L 86.596581 136.039849 
L 86.829609 135.707572 
L 87.062638 135.616703 
L 87.295666 135.712699 
L 87.528695 135.556938 
L 87.761724 136.154114 
L 88.227781 135.474428 
L 88.46081 136.210128 
L 88.693838 136.302004 
L 88.926867 137.11159 
L 89.159895 136.714796 
L 89.392924 137.227335 
L 89.625953 136.862267 
L 89.858981 137.082745 
L 90.09201 137.543153 
L 90.325039 137.466467 
L 90.558067 137.804889 
L 91.024124 137.538393 
L 91.257153 136.548414 
L 91.490182 136.800203 
L 91.72321 136.670716 
L 91.956239 136.855239 
L 92.422296 136.212201 
L 92.655325 135.885649 
L 92.888353 136.01424 
L 93.354411 136.783017 
L 93.587439 135.866609 
L 93.820468 135.960793 
L 94.053497 135.633074 
L 94.286525 135.541454 
L 94.985611 136.584045 
L 95.21864 136.452663 
L 95.451668 136.644507 
L 95.684697 137.202353 
L 95.917726 136.677994 
L 96.150754 134.979923 
L 96.383783 134.36642 
L 96.616811 133.204936 
L 97.082869 132.238036 
L 97.315897 132.465921 
L 97.548926 131.936552 
L 97.781955 131.837581 
L 98.248012 132.217708 
L 98.48104 133.032272 
L 98.714069 133.244101 
L 98.947098 134.169211 
L 99.180126 134.561778 
L 99.413155 134.267942 
L 99.646184 134.773017 
L 100.112241 136.41148 
L 100.345269 136.40059 
L 100.578298 135.553881 
L 100.811327 136.116895 
L 101.044355 137.215318 
L 101.277384 136.927223 
L 101.510413 137.867724 
L 101.743441 137.034174 
L 101.97647 134.519511 
L 102.442527 132.452008 
L 102.675556 132.235001 
L 102.908584 132.313277 
L 103.141613 131.648043 
L 103.374641 132.00503 
L 103.60767 132.14105 
L 104.772813 134.226553 
L 105.005842 134.480583 
L 105.23887 134.405703 
L 105.471899 134.872046 
L 105.704928 134.938251 
L 105.937956 135.618798 
L 106.170985 135.668494 
L 106.404014 136.065087 
L 106.870071 136.094984 
L 107.103099 136.393976 
L 107.336128 136.301761 
L 107.802185 133.143242 
L 108.268243 132.092701 
L 108.501271 131.974991 
L 108.7343 131.521293 
L 108.967328 131.494382 
L 109.200357 132.141381 
L 109.433386 132.331806 
L 109.666414 133.158418 
L 109.899443 133.347895 
L 110.132472 134.318351 
L 110.598529 134.28041 
L 110.831557 134.486014 
L 111.064586 134.301316 
L 111.530643 135.614796 
L 111.763672 135.719972 
L 111.996701 134.822843 
L 112.928815 136.608433 
L 113.627901 135.420501 
L 113.86093 134.738629 
L 114.093958 135.012424 
L 114.326987 134.418563 
L 114.560015 135.06148 
L 114.793044 134.368541 
L 115.026073 134.172804 
L 115.259101 134.317867 
L 115.49213 135.111214 
L 115.725159 136.997472 
L 116.424244 135.831629 
L 117.356359 133.801737 
L 118.754531 130.189808 
L 120.851788 123.872298 
L 121.084817 123.163996 
L 121.317846 150.32548 
L 121.783903 150.342862 
L 122.016931 150.252607 
L 122.24996 150.332312 
L 122.716017 149.810126 
L 122.949046 149.763493 
L 123.182075 150.118414 
L 124.114189 149.321713 
L 125.046304 150.144767 
L 125.279332 150.038283 
L 125.512361 150.258553 
L 125.745389 150.009429 
L 126.211447 150.381026 
L 126.444475 150.29897 
L 126.677504 149.977193 
L 127.143561 149.971557 
L 127.842647 149.730323 
L 128.075676 149.364467 
L 128.308704 149.530333 
L 128.541733 149.417966 
L 128.774761 149.695574 
L 129.240819 149.583255 
L 129.706876 148.840439 
L 130.405962 149.433891 
L 130.63899 149.922527 
L 130.872019 149.896386 
L 131.105048 150.086972 
L 131.338076 150.121644 
L 131.571105 150.396798 
L 131.804134 150.200909 
L 132.037162 150.392005 
L 132.270191 150.350444 
L 132.503219 150.061261 
L 132.969277 150.419639 
L 133.202305 150.25002 
L 133.435334 150.409726 
L 133.668363 150.32343 
L 133.901391 149.951799 
L 134.13442 149.909432 
L 134.367448 149.707018 
L 134.600477 149.303949 
L 134.833506 149.594318 
L 135.066534 149.591829 
L 135.76562 150.673315 
L 135.998649 150.441363 
L 136.464706 150.308471 
L 137.163792 149.563303 
L 137.629849 150.4078 
L 137.862878 150.910596 
L 138.328935 150.681997 
L 138.561964 150.25547 
L 138.794992 150.259908 
L 139.26105 149.680529 
L 139.494078 149.65718 
L 139.727107 149.248687 
L 139.960135 149.197292 
L 140.193164 148.002882 
L 140.659221 147.384674 
L 140.89225 146.271511 
L 141.358307 141.942623 
L 142.057393 138.009208 
L 142.290422 136.506958 
L 142.52345 135.80598 
L 142.989508 133.545187 
L 143.222536 132.364753 
L 143.455565 132.547934 
L 143.688593 132.993562 
L 143.921622 133.764066 
L 144.154651 133.176886 
L 144.620708 133.604554 
L 144.853737 133.595059 
L 145.086765 133.741846 
L 145.319794 134.021115 
L 145.552822 134.061109 
L 145.785851 135.200136 
L 146.01888 135.467735 
L 146.251908 135.937882 
L 146.717966 133.686386 
L 147.417051 131.991753 
L 147.65008 132.140056 
L 148.116137 131.073488 
L 148.349166 130.895784 
L 148.582195 130.956695 
L 148.815223 131.672948 
L 149.048252 131.885749 
L 149.28128 133.52633 
L 149.514309 132.410859 
L 149.747338 132.383699 
L 150.213395 132.763121 
L 150.679452 133.310982 
L 150.912481 133.415219 
L 151.378538 134.278272 
L 151.611567 134.170104 
L 151.844595 134.314682 
L 152.077624 133.646117 
L 152.543681 131.607439 
L 152.77671 130.905718 
L 153.009738 131.06575 
L 153.242767 130.695054 
L 153.475796 130.997699 
L 153.708824 131.020184 
L 153.941853 130.580014 
L 154.174881 130.776842 
L 154.873967 132.683474 
L 155.106996 132.447466 
L 155.340025 132.62652 
L 155.573053 132.496286 
L 156.03911 133.324163 
L 156.272139 133.277067 
L 156.738196 133.893621 
L 156.971225 134.225883 
L 157.204254 134.993725 
L 157.437282 134.677455 
L 158.136368 131.318928 
L 159.068483 130.279054 
L 159.301511 130.566661 
L 159.53454 130.237971 
L 159.767568 131.118862 
L 160.000597 131.356466 
L 160.466654 132.616929 
L 160.699683 133.008315 
L 160.932712 132.740316 
L 161.16574 133.205425 
L 161.631797 133.495471 
L 161.864826 133.420821 
L 162.097855 134.399573 
L 162.330883 134.130069 
L 162.563912 134.580616 
L 162.796941 134.640366 
L 163.029969 135.649663 
L 163.262998 135.332736 
L 163.496026 135.518238 
L 163.729055 134.560853 
L 163.962084 134.207913 
L 164.428141 132.987987 
L 164.894198 132.366309 
L 165.127227 132.953174 
L 165.360255 133.123289 
L 165.593284 132.887341 
L 165.826313 133.185396 
L 166.059341 133.748168 
L 166.525399 132.802781 
L 166.758427 132.992407 
L 166.991456 133.420015 
L 167.224484 133.134284 
L 167.690542 134.099121 
L 167.92357 134.261735 
L 168.156599 133.956485 
L 168.389628 134.653156 
L 168.622656 134.717143 
L 169.088713 135.02286 
L 170.020828 133.177473 
L 170.253857 133.23062 
L 170.486885 132.873405 
L 170.719914 132.279619 
L 171.419 132.367646 
L 171.652028 132.71651 
L 171.885057 132.863977 
L 172.584143 132.625696 
L 173.283229 133.411821 
L 173.982314 134.122745 
L 174.215343 134.018501 
L 174.448372 133.604233 
L 174.6814 132.187964 
L 174.914429 132.071129 
L 175.147458 130.526702 
L 175.380486 129.934074 
L 175.613515 130.183656 
L 176.079572 129.932004 
L 176.312601 130.261373 
L 176.545629 130.206049 
L 177.244715 131.867182 
L 177.477744 132.001222 
L 177.710772 131.513899 
L 177.943801 131.965823 
L 178.17683 132.059818 
L 178.642887 132.807843 
L 178.875916 133.666377 
L 179.108944 134.077455 
L 179.341973 133.644595 
L 179.575001 134.230182 
L 179.80803 134.178528 
L 180.507116 131.174857 
L 180.740145 131.065128 
L 180.973173 130.000363 
L 181.206202 130.202362 
L 181.672259 129.604294 
L 182.138316 129.919533 
L 182.837402 131.355981 
L 183.070431 131.762538 
L 183.303459 131.684317 
L 183.769517 132.255194 
L 184.002545 132.225278 
L 184.235574 132.82136 
L 184.468603 132.951949 
L 184.701631 133.259662 
L 184.93466 133.923425 
L 185.400717 134.152852 
L 185.633746 133.453512 
L 186.099803 131.267045 
L 186.56586 130.313226 
L 186.798889 130.336464 
L 187.264946 129.761457 
L 187.497975 130.439748 
L 187.731003 130.235581 
L 187.964032 130.598892 
L 188.197061 131.432431 
L 188.430089 131.486626 
L 188.663118 131.668714 
L 188.896146 131.500506 
L 190.294318 133.038214 
L 190.760375 134.220899 
L 190.993404 134.415162 
L 191.69249 131.093628 
L 191.925519 130.517389 
L 192.391576 130.257669 
L 192.624604 129.869701 
L 192.857633 130.235165 
L 193.090662 129.963419 
L 193.32369 130.169965 
L 194.255805 131.663058 
L 194.488833 131.501572 
L 194.721862 131.949397 
L 194.954891 132.127659 
L 195.187919 132.114365 
L 195.420948 132.303044 
L 195.653977 133.049536 
L 196.353062 133.961274 
L 196.586091 133.699014 
L 196.81912 133.268962 
L 197.285177 131.364251 
L 197.518206 130.551069 
L 197.751234 130.868875 
L 197.984263 130.579337 
L 198.217291 129.99128 
L 198.683349 130.685408 
L 198.916377 130.339169 
L 199.615463 131.995928 
L 199.848492 132.227375 
L 200.08152 132.024945 
L 200.314549 132.404366 
L 200.547578 132.392794 
L 200.780606 132.660237 
L 201.246663 132.732269 
L 201.479692 133.367137 
L 201.712721 133.463937 
L 201.945749 133.764538 
L 202.178778 134.515769 
L 202.411807 134.666282 
L 202.644835 134.558021 
L 202.877864 133.976699 
L 203.809978 133.123127 
L 204.043007 133.070197 
L 204.276036 132.893837 
L 204.509064 132.981337 
L 204.742093 132.739661 
L 204.975121 133.28773 
L 205.20815 133.433609 
L 205.441179 133.352627 
L 205.674207 133.019698 
L 205.907236 133.182766 
L 206.140265 133.179136 
L 206.373293 133.62294 
L 206.83935 133.182922 
L 207.072379 133.187703 
L 207.305408 133.631488 
L 207.771465 134.857244 
L 208.004494 135.39229 
L 208.237522 135.168476 
L 208.470551 134.626105 
L 208.703579 134.572843 
L 209.169637 133.176334 
L 209.402665 132.890769 
L 209.635694 132.801079 
L 209.868723 132.42055 
L 210.101751 132.764574 
L 210.33478 132.874083 
L 210.567808 132.669938 
L 210.800837 133.021277 
L 211.033866 132.71046 
L 211.266894 132.862485 
L 211.499923 132.70784 
L 211.732952 132.896101 
L 211.96598 132.77673 
L 212.665066 133.739361 
L 213.131123 133.603049 
L 213.597181 134.598222 
L 214.063238 133.710606 
L 214.296266 133.411975 
L 214.529295 133.304338 
L 214.762324 132.586625 
L 215.228381 131.895402 
L 215.46141 132.02531 
L 215.694438 131.946215 
L 215.927467 132.005827 
L 216.160495 132.192796 
L 216.393524 132.090737 
L 216.859581 131.746622 
L 217.09261 132.120305 
L 217.325639 131.988719 
L 217.558667 132.506676 
L 218.024724 132.970163 
L 218.257753 133.508055 
L 218.490782 133.438101 
L 218.956839 134.258416 
L 219.655925 130.904377 
L 220.121982 129.793378 
L 220.355011 129.809954 
L 220.821068 129.502058 
L 221.287125 129.613671 
L 221.986211 131.339557 
L 222.21924 131.811945 
L 222.452268 131.683622 
L 222.685297 132.047347 
L 222.918325 131.987234 
L 224.083469 133.805871 
L 224.316497 134.603914 
L 224.782554 133.892021 
L 225.248612 131.349343 
L 225.48164 130.960155 
L 225.714669 130.257213 
L 225.947698 131.049052 
L 226.180726 131.191001 
L 226.413755 130.32231 
L 226.646783 130.628707 
L 226.879812 129.998591 
L 227.345869 131.338087 
L 227.578898 130.754812 
L 228.044955 131.479391 
L 228.277984 131.454973 
L 228.511012 130.971254 
L 228.744041 131.691597 
L 228.97707 131.720188 
L 229.443127 132.564026 
L 229.676156 132.563991 
L 230.142213 133.561066 
L 230.375241 132.745517 
L 230.841299 130.305941 
L 231.074327 129.828305 
L 231.540385 129.704472 
L 231.773413 129.358012 
L 232.006442 129.445791 
L 232.23947 129.311861 
L 232.472499 129.483036 
L 232.938556 130.659942 
L 232.938556 130.659942 
" clip-path="url(#pffe56ed85e)" style="fill: none; stroke: #858585; stroke-width: 0.75; stroke-linecap: square"/>
   </g>
   <g id="line2d_22">
    <path d="M 43.719314 53.075786 
L 43.952342 52.653957 
L 44.185371 51.370746 
L 44.4184 54.310201 
L 44.651428 55.052788 
L 44.884457 56.189201 
L 45.117486 56.298161 
L 45.350514 58.681604 
L 45.583543 58.573412 
L 45.816571 59.856997 
L 46.0496 56.141796 
L 46.282629 54.935209 
L 46.515657 55.370172 
L 46.748686 54.146037 
L 46.981715 54.406535 
L 47.447772 50.548755 
L 47.6808 53.125849 
L 47.913829 52.984699 
L 48.146858 48.893401 
L 48.379886 51.144361 
L 48.612915 56.421052 
L 49.078972 53.22212 
L 49.545029 57.901608 
L 49.778058 57.361609 
L 50.011087 60.917724 
L 50.477144 58.075785 
L 50.710173 61.740432 
L 50.943201 59.357911 
L 51.17623 62.529652 
L 51.409258 62.193339 
L 51.642287 62.300147 
L 51.875316 60.276079 
L 52.108344 55.63961 
L 52.341373 54.291465 
L 52.574402 54.684043 
L 52.80743 53.457428 
L 53.040459 51.518047 
L 53.273487 51.303006 
L 53.506516 51.74696 
L 53.739545 52.907386 
L 54.205602 53.154816 
L 54.43863 53.742409 
L 54.671659 51.125036 
L 54.904688 51.923122 
L 55.137716 53.894094 
L 55.370745 52.377557 
L 55.603774 56.936164 
L 55.836802 56.343252 
L 56.069831 58.264084 
L 56.302859 55.603149 
L 56.535888 58.320267 
L 56.768917 59.609169 
L 57.468003 47.637504 
L 57.701031 46.158084 
L 57.93406 45.820487 
L 58.167088 44.319663 
L 58.633146 43.33889 
L 58.866174 43.334834 
L 59.099203 44.037922 
L 59.798289 48.975073 
L 60.031317 50.137339 
L 60.264346 49.881192 
L 60.497375 50.058877 
L 60.730403 50.548253 
L 60.963432 52.809441 
L 61.196461 53.490529 
L 61.429489 54.59549 
L 61.662518 53.733999 
L 61.895546 55.88712 
L 62.128575 55.276116 
L 62.361604 55.461416 
L 63.06069 46.673892 
L 63.526747 44.700567 
L 63.759775 44.482781 
L 63.992804 44.629646 
L 64.225833 43.731902 
L 64.458861 43.83439 
L 64.69189 44.313203 
L 64.924919 45.1855 
L 65.157947 46.58009 
L 65.390976 49.067889 
L 65.624004 50.283777 
L 65.857033 49.147961 
L 66.090062 49.364618 
L 66.32309 49.306253 
L 66.789148 53.018437 
L 67.022176 52.774931 
L 67.255205 51.329373 
L 67.721262 53.693116 
L 67.954291 53.474241 
L 68.187319 51.960719 
L 68.653377 45.962889 
L 69.119434 43.893723 
L 69.352462 44.64017 
L 69.585491 43.61531 
L 70.051548 43.007226 
L 70.284577 43.944213 
L 70.983663 50.961493 
L 71.216691 50.447507 
L 71.44972 51.722236 
L 71.682749 49.918311 
L 71.915777 52.679588 
L 72.148806 50.868021 
L 72.381835 51.47627 
L 72.614863 53.743688 
L 72.847892 53.448357 
L 73.546978 59.107902 
L 74.246064 46.103908 
L 74.479092 44.476661 
L 74.712121 44.33709 
L 74.945149 43.407052 
L 75.411207 42.717932 
L 75.644235 43.006113 
L 75.877264 43.812176 
L 76.343321 47.102172 
L 76.57635 49.912193 
L 76.809378 49.620033 
L 77.042407 49.936858 
L 77.275436 51.675793 
L 77.508464 50.565743 
L 77.741493 51.63335 
L 77.974522 54.785775 
L 78.20755 54.259275 
L 78.440579 56.04567 
L 78.673607 56.942376 
L 78.906636 55.325943 
L 79.139665 55.150635 
L 79.372693 52.680986 
L 79.83875 45.898267 
L 80.071779 44.248819 
L 80.770865 43.503141 
L 81.236922 44.223603 
L 81.469951 45.107807 
L 81.702979 46.603071 
L 82.169037 54.414456 
L 82.402065 52.178102 
L 82.635094 53.12389 
L 82.868123 53.420159 
L 83.101151 51.844591 
L 83.33418 54.13841 
L 83.567208 54.052321 
L 83.800237 57.236207 
L 84.033266 55.915129 
L 84.499323 60.917682 
L 84.732352 60.167823 
L 84.96538 58.747056 
L 85.198409 59.05224 
L 85.431437 55.717901 
L 85.664466 54.672634 
L 85.897495 52.861083 
L 86.130523 53.812805 
L 86.363552 52.39623 
L 86.596581 53.061344 
L 86.829609 51.89946 
L 87.062638 51.54791 
L 87.295666 51.801893 
L 87.528695 51.303209 
L 87.761724 53.207642 
L 88.227781 51.067265 
L 88.46081 53.350845 
L 88.693838 53.633819 
L 88.926867 56.385887 
L 89.159895 54.98243 
L 89.392924 56.744012 
L 89.625953 55.448532 
L 89.858981 56.219437 
L 90.09201 57.858699 
L 90.325039 57.564249 
L 90.558067 58.762388 
L 90.791096 57.983014 
L 91.024124 57.678221 
L 91.257153 54.132184 
L 91.490182 54.924583 
L 91.72321 54.396983 
L 91.956239 54.955351 
L 92.422296 52.565671 
L 92.655325 51.490742 
L 92.888353 51.811642 
L 93.354411 54.391388 
L 93.587439 51.396973 
L 93.820468 51.6568 
L 94.053497 50.895566 
L 94.286525 50.68286 
L 94.985611 53.687821 
L 95.21864 53.234475 
L 95.451668 53.908235 
L 95.684697 55.874783 
L 95.917726 54.035871 
L 96.150754 49.578627 
L 96.383783 48.474535 
L 96.616811 45.697738 
L 97.082869 43.851175 
L 97.315897 44.250165 
L 97.548926 43.389254 
L 97.781955 43.235117 
L 98.248012 43.877422 
L 98.48104 45.394606 
L 98.714069 45.897462 
L 98.947098 48.162464 
L 99.180126 48.894114 
L 99.413155 48.392117 
L 99.646184 49.284583 
L 100.112241 53.306494 
L 100.345269 53.290481 
L 100.578298 50.876681 
L 100.811327 52.343507 
L 101.044355 56.175643 
L 101.277384 55.156211 
L 101.510413 58.533935 
L 101.743441 55.519315 
L 101.97647 48.894128 
L 102.442527 44.393414 
L 102.675556 44.034182 
L 102.908584 44.166183 
L 103.141613 42.963908 
L 103.374641 43.670431 
L 103.60767 43.906871 
L 104.073727 45.306519 
L 104.539785 47.710043 
L 105.005842 48.866299 
L 105.23887 48.729673 
L 105.471899 49.604202 
L 105.704928 49.728725 
L 105.937956 51.328941 
L 106.170985 51.476196 
L 106.404014 52.571819 
L 106.870071 52.725212 
L 107.103099 53.741886 
L 107.336128 53.44418 
L 107.802185 45.621744 
L 108.268243 43.284942 
L 108.501271 43.095838 
L 108.7343 42.530523 
L 108.967328 42.493875 
L 109.200357 43.4009 
L 109.433386 43.755687 
L 109.666414 45.61386 
L 109.899443 46.045271 
L 110.132472 48.637468 
L 110.3655 48.497537 
L 110.598529 48.550697 
L 110.831557 49.14848 
L 111.064586 48.660115 
L 111.297615 50.968467 
L 111.530643 52.148836 
L 111.763672 52.470556 
L 111.996701 50.133721 
L 112.229729 51.35111 
L 112.462758 53.368029 
L 112.695786 54.055753 
L 112.928815 55.529368 
L 113.86093 50.113146 
L 114.093958 50.849191 
L 114.326987 49.352075 
L 114.560015 51.041001 
L 114.793044 49.236439 
L 115.026073 48.473048 
L 115.259101 49.062878 
L 115.49213 51.238864 
L 115.725159 163.353404 
L 117.589388 158.18441 
L 119.686645 151.553148 
L 121.084817 146.814443 
L 121.317846 97.89619 
L 121.783903 97.831344 
L 122.016931 98.171693 
L 122.24996 97.875712 
L 122.482989 99.121742 
L 122.716017 99.701251 
L 122.949046 99.859805 
L 123.182075 98.665186 
L 123.415103 99.282374 
L 123.648132 100.260255 
L 123.88116 100.548545 
L 124.114189 101.209837 
L 125.046304 98.619479 
L 125.279332 98.994787 
L 125.512361 98.198214 
L 125.745389 99.084639 
L 125.978418 98.127296 
L 126.211447 97.72638 
L 126.444475 98.04002 
L 126.677504 99.185773 
L 126.910532 99.00323 
L 127.609618 99.751585 
L 127.842647 100.015307 
L 128.075676 101.135757 
L 128.308704 100.640828 
L 128.541733 100.983213 
L 128.774761 100.141084 
L 129.00779 100.208327 
L 129.240819 100.48378 
L 129.706876 102.487065 
L 129.939905 102.100835 
L 130.405962 100.970288 
L 130.63899 99.434283 
L 130.872019 99.520762 
L 131.105048 98.866678 
L 131.338076 98.746308 
L 131.571105 97.772714 
L 131.804134 98.472679 
L 132.037162 97.799182 
L 132.270191 97.966333 
L 132.503219 98.964326 
L 132.736248 98.538155 
L 132.969277 97.713024 
L 133.202305 98.31941 
L 133.435334 97.74083 
L 133.668363 98.050372 
L 133.901391 99.315094 
L 134.13442 99.457639 
L 134.367448 100.113725 
L 134.600477 101.334201 
L 134.833506 100.466918 
L 135.066534 100.468899 
L 135.532592 97.161066 
L 135.998649 94.426146 
L 136.231677 94.314556 
L 136.464706 93.833291 
L 137.163792 91.051512 
L 137.396821 92.236498 
L 137.862878 95.326968 
L 138.095906 95.68638 
L 138.561964 91.369685 
L 138.794992 91.017953 
L 139.26105 87.919782 
L 139.494078 87.80777 
L 139.727107 86.172685 
L 139.960135 86.295386 
L 140.193164 83.222419 
L 140.659221 81.324409 
L 140.89225 78.100998 
L 141.358307 68.247561 
L 142.290422 56.378332 
L 142.52345 54.505957 
L 143.222536 46.920397 
L 143.455565 44.542779 
L 143.688593 45.346198 
L 143.921622 47.119944 
L 144.154651 45.681811 
L 145.086765 47.046251 
L 145.319794 47.935291 
L 145.552822 48.100816 
L 145.785851 51.684666 
L 146.01888 52.383437 
L 146.251908 53.897234 
L 146.950994 45.592913 
L 147.417051 43.608291 
L 147.65008 43.871078 
L 148.116137 42.131949 
L 148.349166 41.88928 
L 148.582195 42.011599 
L 148.815223 43.217195 
L 149.048252 43.603448 
L 149.28128 46.986549 
L 149.514309 44.525235 
L 149.747338 44.490038 
L 149.980366 44.787785 
L 150.446423 45.96786 
L 150.679452 46.648817 
L 150.912481 46.957515 
L 151.378538 49.717154 
L 151.611567 49.42223 
L 151.844595 49.910863 
L 152.077624 47.920969 
L 152.310652 44.536939 
L 152.77671 42.098046 
L 153.009738 42.397428 
L 153.242767 41.822254 
L 153.475796 42.349544 
L 153.708824 42.408307 
L 153.941853 41.719109 
L 154.174881 42.062092 
L 154.40791 42.979171 
L 154.873967 45.960503 
L 155.106996 45.440791 
L 155.340025 45.881814 
L 155.573053 45.596308 
L 156.03911 48.057789 
L 156.272139 47.940809 
L 156.505168 49.176423 
L 156.738196 49.808323 
L 156.971225 50.799098 
L 157.204254 53.488336 
L 157.437282 52.358127 
L 157.903339 45.892894 
L 158.136368 43.17511 
L 158.602425 42.133867 
L 158.835454 42.097036 
L 159.068483 41.475081 
L 159.301511 41.953838 
L 159.53454 41.440439 
L 159.767568 42.933562 
L 160.000597 43.428716 
L 160.699683 47.643538 
L 160.932712 46.823629 
L 161.16574 48.221485 
L 161.631797 49.072085 
L 161.864826 48.858526 
L 162.097855 51.840385 
L 162.330883 51.020108 
L 162.563912 52.45819 
L 162.796941 52.704298 
L 163.029969 55.659471 
L 163.262998 54.800413 
L 163.496026 55.23895 
L 163.729055 52.319342 
L 163.962084 51.189725 
L 164.428141 47.449439 
L 164.894198 45.562477 
L 165.127227 47.229888 
L 165.360255 47.718324 
L 165.593284 46.964698 
L 165.826313 47.857505 
L 166.059341 49.508246 
L 166.525399 46.661973 
L 166.758427 47.245964 
L 166.991456 48.53372 
L 167.224484 47.686046 
L 167.690542 50.574152 
L 167.92357 51.090051 
L 168.156599 50.154812 
L 168.389628 52.312418 
L 168.622656 52.577132 
L 168.855685 53.326293 
L 169.088713 53.505035 
L 170.020828 47.720199 
L 170.253857 47.853758 
L 170.719914 45.146584 
L 170.952942 45.25402 
L 171.185971 45.107433 
L 171.419 45.292446 
L 171.652028 46.145917 
L 171.885057 46.574369 
L 172.118086 46.310432 
L 172.351114 45.836222 
L 172.584143 45.911129 
L 173.283229 48.29852 
L 173.982314 50.414282 
L 174.215343 50.090506 
L 174.448372 48.854021 
L 174.6814 44.889032 
L 174.914429 44.619207 
L 175.147458 41.852691 
L 175.380486 40.977726 
L 175.613515 41.347677 
L 175.846543 41.080955 
L 176.079572 40.989519 
L 176.312601 41.478048 
L 176.545629 41.409372 
L 177.477744 44.617584 
L 177.710772 43.598503 
L 177.943801 44.580829 
L 178.17683 44.805792 
L 178.642887 46.77927 
L 178.875916 49.422995 
L 179.108944 50.673732 
L 179.341973 49.380864 
L 179.575001 51.151203 
L 179.80803 50.982433 
L 180.507116 43.067644 
L 180.740145 42.886258 
L 180.973173 41.208227 
L 181.206202 41.509901 
L 181.672259 40.649004 
L 181.905288 40.799522 
L 182.138316 41.121214 
L 183.070431 44.39707 
L 183.303459 44.244843 
L 183.536488 45.170669 
L 183.769517 45.606337 
L 184.002545 45.561124 
L 184.235574 47.364751 
L 184.468603 47.787697 
L 184.701631 48.738129 
L 184.93466 50.718055 
L 185.400717 51.437717 
L 185.633746 49.370631 
L 186.099803 43.602555 
L 186.332832 42.483055 
L 186.56586 41.936508 
L 186.798889 42.001946 
L 187.264946 41.15775 
L 187.497975 42.245483 
L 187.731003 41.944512 
L 187.964032 42.618769 
L 188.197061 44.398248 
L 188.430089 44.553336 
L 188.663118 44.997699 
L 188.896146 44.643634 
L 189.362204 45.634723 
L 189.828261 47.933412 
L 190.294318 49.203348 
L 190.760375 52.722532 
L 190.993404 53.320994 
L 191.69249 43.936299 
L 191.925519 42.788568 
L 192.158547 42.668062 
L 192.391576 42.354346 
L 192.624604 41.634093 
L 192.857633 42.393664 
L 193.090662 41.885888 
L 193.32369 42.321633 
L 193.789748 44.327092 
L 194.255805 45.949197 
L 194.488833 45.50418 
L 194.721862 46.804621 
L 194.954891 47.338709 
L 195.187919 47.311594 
L 195.420948 47.882178 
L 195.653977 50.020604 
L 196.353062 52.719006 
L 196.586091 51.937864 
L 196.81912 50.65927 
L 197.285177 45.167832 
L 197.518206 43.213663 
L 197.751234 43.891292 
L 197.984263 43.253458 
L 198.217291 42.081604 
L 198.683349 43.47405 
L 198.916377 42.756161 
L 199.848492 47.578597 
L 200.08152 46.960979 
L 200.314549 48.059026 
L 200.547578 48.029515 
L 200.780606 48.782038 
L 201.013635 49.035003 
L 201.246663 48.974898 
L 201.479692 50.832583 
L 201.712721 51.120974 
L 201.945749 52.042086 
L 202.178778 54.543397 
L 202.411807 55.102372 
L 202.644835 54.601169 
L 202.877864 52.548562 
L 203.809978 49.724766 
L 204.043007 49.487803 
L 204.276036 48.901035 
L 204.509064 49.084263 
L 204.742093 48.323252 
L 204.975121 49.848084 
L 205.20815 50.246361 
L 205.441179 49.965402 
L 205.674207 48.961593 
L 205.907236 49.39623 
L 206.140265 49.344517 
L 206.373293 50.623417 
L 206.83935 49.310892 
L 207.072379 49.323841 
L 207.305408 50.638824 
L 207.771465 54.672308 
L 208.004494 56.042102 
L 208.237522 55.365328 
L 208.470551 53.533722 
L 208.703579 53.252707 
L 209.169637 48.897561 
L 209.402665 47.9596 
L 209.635694 47.599242 
L 209.868723 46.392164 
L 210.101751 47.360383 
L 210.33478 47.632342 
L 210.567808 46.97295 
L 210.800837 48.016612 
L 211.033866 47.027842 
L 211.266894 47.453276 
L 211.499923 46.954794 
L 211.732952 47.5081 
L 211.96598 47.12936 
L 212.665066 50.041226 
L 212.898095 50.015333 
L 213.131123 49.690187 
L 213.597181 52.724169 
L 214.063238 49.920484 
L 214.296266 48.964892 
L 214.529295 48.56423 
L 214.762324 46.310752 
L 215.228381 44.538663 
L 215.46141 44.808405 
L 215.694438 44.604723 
L 215.927467 44.727282 
L 216.160495 45.147173 
L 216.393524 44.914113 
L 216.626553 44.385131 
L 216.859581 44.170545 
L 217.09261 45.002384 
L 217.325639 44.704331 
L 217.558667 45.904306 
L 217.791696 46.435159 
L 218.024724 47.317788 
L 218.257753 49.008597 
L 218.490782 48.783052 
L 218.956839 51.285133 
L 219.422896 44.999773 
L 219.655925 42.748933 
L 220.121982 41.05011 
L 220.355011 41.087202 
L 220.821068 40.604602 
L 221.054097 40.824967 
L 221.287125 40.83497 
L 222.21924 44.562905 
L 222.452268 44.297085 
L 222.685297 45.132538 
L 222.918325 45.00731 
L 223.85044 48.923267 
L 224.083469 50.374141 
L 224.316497 52.828059 
L 224.782554 50.656972 
L 225.248612 43.750931 
L 225.48164 43.088938 
L 225.714669 41.984511 
L 225.947698 43.290531 
L 226.180726 43.605048 
L 226.413755 42.151582 
L 226.646783 42.666516 
L 226.879812 41.689226 
L 227.112841 42.641826 
L 227.345869 44.127845 
L 227.578898 42.96743 
L 228.044955 44.548417 
L 228.277984 44.528075 
L 228.511012 43.530045 
L 228.744041 45.155601 
L 228.97707 45.27293 
L 229.443127 47.813556 
L 229.676156 47.844339 
L 230.142213 50.927162 
L 230.375241 48.54052 
L 230.841299 42.491519 
L 231.074327 41.712809 
L 231.307356 41.567083 
L 231.540385 41.579093 
L 231.773413 41.092117 
L 232.006442 41.24737 
L 232.23947 41.081969 
L 232.472499 41.354004 
L 232.938556 43.666133 
L 232.938556 43.666133 
" clip-path="url(#pffe56ed85e)" style="fill: none; stroke: #4a4a4a; stroke-width: 0.75; stroke-linecap: square"/>
   </g>
   <g id="patch_3">
    <path d="M 34.258352 170.135262 
L 34.258352 20.934375 
" style="fill: none; stroke: #000000; stroke-width: 0.7; stroke-linejoin: miter; stroke-linecap: square"/>
   </g>
   <g id="patch_4">
    <path d="M 34.258352 170.135262 
L 242.399518 170.135262 
" style="fill: none; stroke: #000000; stroke-width: 0.7; stroke-linejoin: miter; stroke-linecap: square"/>
   </g>
   <g id="text_17">
    <text style="font-weight: 700; font-size: 8px; font-family: 'Times New Roman'; text-anchor: start" x="7.2" y="13.239777" transform="rotate(-0 7.2 13.239777)">a</text>
   </g>
   <g id="text_18">
    <text style="font-size: 9px; font-family: 'SimSun'; text-anchor: middle" x="138.328935" y="14.934375" transform="rotate(-0 138.328935 14.934375)">权重随样本变化</text>
   </g>
   <g id="legend_1">
    <g id="line2d_23">
     <path d="M 96.799518 30.8 
L 103.799518 30.8 
L 110.799518 30.8 
" style="fill: none; stroke: #c9c9c9; stroke-width: 0.75; stroke-linecap: square"/>
    </g>
    <g id="text_19">
     <text style="font-size: 7px; font-family: 'SimSun'; text-anchor: start" x="116.399518" y="33.25" transform="rotate(-0 116.399518 33.25)">尺度1</text>
    </g>
    <g id="line2d_24">
     <path d="M 147.899518 30.8 
L 154.899518 30.8 
L 161.899518 30.8 
" style="fill: none; stroke: #858585; stroke-width: 0.75; stroke-linecap: square"/>
    </g>
    <g id="text_20">
     <text style="font-size: 7px; font-family: 'SimSun'; text-anchor: start" x="167.499518" y="33.25" transform="rotate(-0 167.499518 33.25)">尺度2</text>
    </g>
    <g id="line2d_25">
     <path d="M 198.999518 30.8 
L 205.999518 30.8 
L 212.999518 30.8 
" style="fill: none; stroke: #4a4a4a; stroke-width: 0.75; stroke-linecap: square"/>
    </g>
    <g id="text_21">
     <text style="font-size: 7px; font-family: 'SimSun'; text-anchor: start" x="218.599518" y="33.25" transform="rotate(-0 218.599518 33.25)">尺度4</text>
    </g>
   </g>
  </g>
  <g id="axes_2">
   <g id="patch_5">
    <path d="M 275.458352 170.135262 
L 483.599518 170.135262 
L 483.599518 20.934375 
L 275.458352 20.934375 
z
" style="fill: #ffffff"/>
   </g>
   <g id="FillBetweenPolyCollection_1">
    <defs>
     <path id="m65738e96c5" d="M 314.352185 -60.991526 
L 305.573889 -60.991526 
L 303.80116 -62.002354 
L 301.736494 -63.013181 
L 299.4774 -64.024009 
L 297.146568 -65.034837 
L 294.862031 -66.045665 
L 292.708508 -67.056493 
L 290.726752 -68.067321 
L 288.931208 -69.078149 
L 287.349277 -70.088976 
L 286.058452 -71.099804 
L 285.194465 -72.110632 
L 284.919314 -73.12146 
L 285.362824 -74.132288 
L 286.567762 -75.143116 
L 288.465638 -76.153944 
L 290.891746 -77.164771 
L 293.627652 -78.175599 
L 296.449621 -79.186427 
L 299.165324 -80.197255 
L 301.6323 -81.208083 
L 303.761365 -82.218911 
L 305.5117 -83.229738 
L 306.88266 -84.240566 
L 307.904328 -85.251394 
L 308.627218 -86.262222 
L 309.111666 -87.27305 
L 309.418145 -88.283878 
L 309.599938 -89.294706 
L 309.699019 -90.305533 
L 309.74505 -91.316361 
L 309.756567 -92.327189 
L 309.743024 -93.338017 
L 309.706607 -94.348845 
L 309.643353 -95.359673 
L 309.543993 -96.370501 
L 309.395689 -97.381328 
L 309.18596 -98.392156 
L 308.909245 -99.402984 
L 308.574351 -100.413812 
L 308.208671 -101.42464 
L 307.854451 -102.435468 
L 307.555707 -103.446295 
L 307.340745 -104.457123 
L 307.210187 -105.467951 
L 307.138788 -106.478779 
L 307.090921 -107.489607 
L 307.040463 -108.500435 
L 306.983552 -109.511263 
L 306.938796 -110.52209 
L 306.938023 -111.532918 
L 307.014213 -112.543746 
L 307.190994 -113.554574 
L 307.474617 -114.565402 
L 307.84919 -115.57623 
L 308.277649 -116.587058 
L 308.710354 -117.597885 
L 309.099111 -118.608713 
L 309.410388 -119.619541 
L 309.631644 -120.630369 
L 309.769074 -121.641197 
L 309.839897 -122.652025 
L 309.864122 -123.662852 
L 309.85916 -124.67368 
L 309.83788 -125.684508 
L 309.808914 -126.695336 
L 309.777758 -127.706164 
L 309.747797 -128.716992 
L 309.721036 -129.72782 
L 309.698558 -130.738647 
L 309.6808 -131.749475 
L 309.667694 -132.760303 
L 309.658757 -133.771131 
L 309.653198 -134.781959 
L 309.650075 -135.792787 
L 309.648472 -136.803614 
L 309.647682 -137.814442 
L 309.647352 -138.82527 
L 309.64759 -139.836098 
L 309.648988 -140.846926 
L 309.652541 -141.857754 
L 309.659403 -142.868582 
L 309.670502 -143.879409 
L 309.686116 -144.890237 
L 309.705587 -145.901065 
L 309.727326 -146.911893 
L 309.749165 -147.922721 
L 309.768932 -148.933549 
L 309.785022 -149.944377 
L 309.796726 -150.955204 
L 309.804236 -151.966032 
L 309.808404 -152.97686 
L 309.810446 -153.987688 
L 309.81172 -154.998516 
L 309.813627 -156.009344 
L 309.817542 -157.020171 
L 309.824677 -158.030999 
L 309.835816 -159.041827 
L 309.851006 -160.052655 
L 309.869384 -161.063483 
L 310.05669 -161.063483 
L 310.05669 -161.063483 
L 310.075068 -160.052655 
L 310.090258 -159.041827 
L 310.101397 -158.030999 
L 310.108532 -157.020171 
L 310.112447 -156.009344 
L 310.114354 -154.998516 
L 310.115629 -153.987688 
L 310.11767 -152.97686 
L 310.121838 -151.966032 
L 310.129348 -150.955204 
L 310.141052 -149.944377 
L 310.157142 -148.933549 
L 310.176909 -147.922721 
L 310.198748 -146.911893 
L 310.220487 -145.901065 
L 310.239958 -144.890237 
L 310.255572 -143.879409 
L 310.266671 -142.868582 
L 310.273533 -141.857754 
L 310.277087 -140.846926 
L 310.278484 -139.836098 
L 310.278722 -138.82527 
L 310.278393 -137.814442 
L 310.277602 -136.803614 
L 310.275999 -135.792787 
L 310.272876 -134.781959 
L 310.267318 -133.771131 
L 310.25838 -132.760303 
L 310.245274 -131.749475 
L 310.227516 -130.738647 
L 310.205038 -129.72782 
L 310.178277 -128.716992 
L 310.148316 -127.706164 
L 310.11716 -126.695336 
L 310.088194 -125.684508 
L 310.066914 -124.67368 
L 310.061952 -123.662852 
L 310.086177 -122.652025 
L 310.157 -121.641197 
L 310.294431 -120.630369 
L 310.515686 -119.619541 
L 310.826963 -118.608713 
L 311.21572 -117.597885 
L 311.648425 -116.587058 
L 312.076884 -115.57623 
L 312.451457 -114.565402 
L 312.73508 -113.554574 
L 312.911861 -112.543746 
L 312.988052 -111.532918 
L 312.987278 -110.52209 
L 312.942523 -109.511263 
L 312.885611 -108.500435 
L 312.835153 -107.489607 
L 312.787286 -106.478779 
L 312.715887 -105.467951 
L 312.585329 -104.457123 
L 312.370367 -103.446295 
L 312.071623 -102.435468 
L 311.717403 -101.42464 
L 311.351723 -100.413812 
L 311.016829 -99.402984 
L 310.740114 -98.392156 
L 310.530386 -97.381328 
L 310.382081 -96.370501 
L 310.282721 -95.359673 
L 310.219467 -94.348845 
L 310.18305 -93.338017 
L 310.169508 -92.327189 
L 310.181024 -91.316361 
L 310.227056 -90.305533 
L 310.326136 -89.294706 
L 310.507929 -88.283878 
L 310.814408 -87.27305 
L 311.298856 -86.262222 
L 312.021746 -85.251394 
L 313.043415 -84.240566 
L 314.414374 -83.229738 
L 316.16471 -82.218911 
L 318.293775 -81.208083 
L 320.76075 -80.197255 
L 323.476453 -79.186427 
L 326.298422 -78.175599 
L 329.034328 -77.164771 
L 331.460436 -76.153944 
L 333.358312 -75.143116 
L 334.563251 -74.132288 
L 335.00676 -73.12146 
L 334.73161 -72.110632 
L 333.867622 -71.099804 
L 332.576797 -70.088976 
L 330.994866 -69.078149 
L 329.199322 -68.067321 
L 327.217566 -67.056493 
L 325.064043 -66.045665 
L 322.779506 -65.034837 
L 320.448674 -64.024009 
L 318.18958 -63.013181 
L 316.124915 -62.002354 
L 314.352185 -60.991526 
z
" style="stroke: #111111"/>
    </defs>
    <g clip-path="url(#p43d7de66f3)">
     <use xlink:href="#m65738e96c5" x="0" y="199.19952" style="fill: #d9d9d9; stroke: #111111"/>
    </g>
   </g>
   <g id="FillBetweenPolyCollection_2">
    <defs>
     <path id="m2250ea3d2b" d="M 402.124224 -35.846116 
L 356.933646 -35.846116 
L 355.891813 -37.044071 
L 355.13922 -38.242025 
L 354.676753 -39.439979 
L 354.485212 -40.637934 
L 354.527022 -41.835888 
L 354.74992 -43.033842 
L 355.092224 -44.231797 
L 355.489151 -45.429751 
L 355.879437 -46.627705 
L 356.211545 -47.82566 
L 356.44873 -49.023614 
L 356.572425 -50.221568 
L 356.583584 -51.419523 
L 356.501885 -52.617477 
L 356.362956 -53.815431 
L 356.213997 -55.013386 
L 356.108352 -56.21134 
L 356.099682 -57.409294 
L 356.236404 -58.607249 
L 356.556966 -59.805203 
L 357.086431 -61.003157 
L 357.834608 -62.201112 
L 358.795816 -63.399066 
L 359.950129 -64.59702 
L 361.265826 -65.794975 
L 362.702649 -66.992929 
L 364.215433 -68.190883 
L 365.757703 -69.388838 
L 367.284887 -70.586792 
L 368.756889 -71.784746 
L 370.139923 -72.982701 
L 371.407554 -74.180655 
L 372.541044 -75.378609 
L 373.529124 -76.576564 
L 374.367356 -77.774518 
L 375.057244 -78.972472 
L 375.605238 -80.170427 
L 376.02173 -81.368381 
L 376.320106 -82.566335 
L 376.515888 -83.76429 
L 376.625952 -84.962244 
L 376.66782 -86.160198 
L 376.659012 -87.358153 
L 376.616424 -88.556107 
L 376.55576 -89.754061 
L 376.491009 -90.952016 
L 376.434003 -92.14997 
L 376.394082 -93.347924 
L 376.377888 -94.545879 
L 376.389311 -95.743833 
L 376.429592 -96.941787 
L 376.497562 -98.139742 
L 376.589984 -99.337696 
L 376.701971 -100.53565 
L 376.827416 -101.733605 
L 376.959391 -102.931559 
L 377.090483 -104.129513 
L 377.21304 -105.327468 
L 377.319329 -106.525422 
L 377.401616 -107.723376 
L 377.452196 -108.921331 
L 377.463408 -110.119285 
L 377.427686 -111.317239 
L 377.337659 -112.515194 
L 377.186327 -113.713148 
L 376.967328 -114.911102 
L 376.675266 -116.109057 
L 376.30609 -117.307011 
L 375.857475 -118.504965 
L 375.329171 -119.70292 
L 374.723283 -120.900874 
L 374.044444 -122.098828 
L 373.299865 -123.296783 
L 372.499267 -124.494737 
L 371.65469 -125.692691 
L 370.78021 -126.890646 
L 369.891595 -128.0886 
L 369.00591 -129.286554 
L 368.141117 -130.484509 
L 367.315667 -131.682463 
L 366.548079 -132.880417 
L 365.856521 -134.078372 
L 365.258359 -135.276326 
L 364.769662 -136.47428 
L 364.404673 -137.672235 
L 364.175241 -138.870189 
L 364.090244 -140.068143 
L 364.155042 -141.266098 
L 364.371011 -142.464052 
L 364.735232 -143.662006 
L 365.240356 -144.859961 
L 365.874717 -146.057915 
L 366.622692 -147.255869 
L 367.465307 -148.453824 
L 368.381054 -149.651778 
L 369.346865 -150.849732 
L 370.339172 -152.047687 
L 371.334967 -153.245641 
L 372.312798 -154.443595 
L 386.745072 -154.443595 
L 386.745072 -154.443595 
L 387.722903 -153.245641 
L 388.718699 -152.047687 
L 389.711005 -150.849732 
L 390.676816 -149.651778 
L 391.592563 -148.453824 
L 392.435178 -147.255869 
L 393.183153 -146.057915 
L 393.817514 -144.859961 
L 394.322638 -143.662006 
L 394.686859 -142.464052 
L 394.902829 -141.266098 
L 394.967626 -140.068143 
L 394.882629 -138.870189 
L 394.653198 -137.672235 
L 394.288209 -136.47428 
L 393.799511 -135.276326 
L 393.201349 -134.078372 
L 392.509791 -132.880417 
L 391.742203 -131.682463 
L 390.916753 -130.484509 
L 390.05196 -129.286554 
L 389.166275 -128.0886 
L 388.27766 -126.890646 
L 387.40318 -125.692691 
L 386.558603 -124.494737 
L 385.758006 -123.296783 
L 385.013427 -122.098828 
L 384.334587 -120.900874 
L 383.728699 -119.70292 
L 383.200395 -118.504965 
L 382.75178 -117.307011 
L 382.382604 -116.109057 
L 382.090543 -114.911102 
L 381.871543 -113.713148 
L 381.720211 -112.515194 
L 381.630184 -111.317239 
L 381.594462 -110.119285 
L 381.605674 -108.921331 
L 381.656254 -107.723376 
L 381.738541 -106.525422 
L 381.844831 -105.327468 
L 381.967387 -104.129513 
L 382.098479 -102.931559 
L 382.230454 -101.733605 
L 382.355899 -100.53565 
L 382.467886 -99.337696 
L 382.560308 -98.139742 
L 382.628278 -96.941787 
L 382.668559 -95.743833 
L 382.679983 -94.545879 
L 382.663788 -93.347924 
L 382.623867 -92.14997 
L 382.566861 -90.952016 
L 382.50211 -89.754061 
L 382.441446 -88.556107 
L 382.398858 -87.358153 
L 382.39005 -86.160198 
L 382.431918 -84.962244 
L 382.541982 -83.76429 
L 382.737764 -82.566335 
L 383.036141 -81.368381 
L 383.452632 -80.170427 
L 384.000626 -78.972472 
L 384.690514 -77.774518 
L 385.528746 -76.576564 
L 386.516826 -75.378609 
L 387.650316 -74.180655 
L 388.917947 -72.982701 
L 390.300981 -71.784746 
L 391.772983 -70.586792 
L 393.300167 -69.388838 
L 394.842437 -68.190883 
L 396.355221 -66.992929 
L 397.792044 -65.794975 
L 399.107741 -64.59702 
L 400.262055 -63.399066 
L 401.223263 -62.201112 
L 401.97144 -61.003157 
L 402.500904 -59.805203 
L 402.821467 -58.607249 
L 402.958188 -57.409294 
L 402.949519 -56.21134 
L 402.843873 -55.013386 
L 402.694914 -53.815431 
L 402.555985 -52.617477 
L 402.474286 -51.419523 
L 402.485445 -50.221568 
L 402.60914 -49.023614 
L 402.846326 -47.82566 
L 403.178433 -46.627705 
L 403.568719 -45.429751 
L 403.965646 -44.231797 
L 404.30795 -43.033842 
L 404.530848 -41.835888 
L 404.572658 -40.637934 
L 404.381117 -39.439979 
L 403.91865 -38.242025 
L 403.166057 -37.044071 
L 402.124224 -35.846116 
z
" style="stroke: #111111"/>
    </defs>
    <g clip-path="url(#p43d7de66f3)">
     <use xlink:href="#m2250ea3d2b" x="0" y="199.19952" style="fill: #aaaaaa; stroke: #111111"/>
    </g>
   </g>
   <g id="FillBetweenPolyCollection_3">
    <defs>
     <path id="m5d516a633b" d="M 449.947784 -39.878208 
L 448.241882 -39.878208 
L 448.144846 -41.207553 
L 448.025135 -42.536897 
L 447.869331 -43.866241 
L 447.660385 -45.195585 
L 447.378003 -46.52493 
L 446.999506 -47.854274 
L 446.501182 -49.183618 
L 445.860167 -50.512962 
L 445.056767 -51.842306 
L 444.077093 -53.171651 
L 442.915795 -54.500995 
L 441.578588 -55.830339 
L 440.084229 -57.159683 
L 438.465577 -58.489028 
L 436.769418 -59.818372 
L 435.054839 -61.147716 
L 433.390114 -62.47706 
L 431.848249 -63.806404 
L 430.501552 -65.135749 
L 429.415782 -66.465093 
L 428.644525 -67.794437 
L 428.224474 -69.123781 
L 428.172192 -70.453126 
L 428.482772 -71.78247 
L 429.130535 -73.111814 
L 430.071659 -74.441158 
L 431.248394 -75.770502 
L 432.5943 -77.099847 
L 434.039908 -78.429191 
L 435.518151 -79.758535 
L 436.969035 -81.087879 
L 438.343168 -82.417224 
L 439.603913 -83.746568 
L 440.728151 -85.075912 
L 441.70575 -86.405256 
L 442.538001 -87.7346 
L 443.235297 -89.063945 
L 443.814416 -90.393289 
L 444.295693 -91.722633 
L 444.700398 -93.051977 
L 445.048508 -94.381322 
L 445.357027 -95.710666 
L 445.638923 -97.04001 
L 445.902673 -98.369354 
L 446.152354 -99.698698 
L 446.388158 -101.028043 
L 446.607223 -102.357387 
L 446.804623 -103.686731 
L 446.97439 -105.016075 
L 447.110484 -106.34542 
L 447.207599 -107.674764 
L 447.261769 -109.004108 
L 447.270728 -110.333452 
L 447.234001 -111.662796 
L 447.152747 -112.992141 
L 447.029345 -114.321485 
L 446.86679 -115.650829 
L 446.667963 -116.980173 
L 446.434853 -118.309518 
L 446.167855 -119.638862 
L 445.865243 -120.968206 
L 445.522925 -122.29755 
L 445.134552 -123.626894 
L 444.691999 -124.956239 
L 444.186194 -126.285583 
L 443.608222 -127.614927 
L 442.950547 -128.944271 
L 442.208218 -130.273616 
L 441.379877 -131.60296 
L 440.468422 -132.932304 
L 439.48122 -134.261648 
L 438.429835 -135.590992 
L 437.329273 -136.920337 
L 436.196865 -138.249681 
L 435.050915 -139.579025 
L 433.909307 -140.908369 
L 432.788255 -142.237714 
L 431.701374 -143.567058 
L 430.659205 -144.896402 
L 429.669259 -146.225746 
L 428.736583 -147.55509 
L 427.864777 -148.884435 
L 427.057339 -150.213779 
L 426.31913 -151.543123 
L 425.657766 -152.872467 
L 425.084705 -154.201812 
L 424.61581 -155.531156 
L 424.271241 -156.8605 
L 424.074568 -158.189844 
L 424.05111 -159.519188 
L 424.2256 -160.848533 
L 424.619411 -162.177877 
L 425.247626 -163.507221 
L 426.116369 -164.836565 
L 427.220736 -166.16591 
L 428.543706 -167.495254 
L 430.056232 -168.824598 
L 431.718586 -170.153942 
L 433.482869 -171.483286 
L 464.706797 -171.483286 
L 464.706797 -171.483286 
L 466.47108 -170.153942 
L 468.133434 -168.824598 
L 469.64596 -167.495254 
L 470.96893 -166.16591 
L 472.073297 -164.836565 
L 472.94204 -163.507221 
L 473.570255 -162.177877 
L 473.964066 -160.848533 
L 474.138556 -159.519188 
L 474.115098 -158.189844 
L 473.918425 -156.8605 
L 473.573856 -155.531156 
L 473.104961 -154.201812 
L 472.5319 -152.872467 
L 471.870536 -151.543123 
L 471.132327 -150.213779 
L 470.324889 -148.884435 
L 469.453083 -147.55509 
L 468.520407 -146.225746 
L 467.530461 -144.896402 
L 466.488293 -143.567058 
L 465.401412 -142.237714 
L 464.280359 -140.908369 
L 463.138751 -139.579025 
L 461.992801 -138.249681 
L 460.860393 -136.920337 
L 459.759831 -135.590992 
L 458.708446 -134.261648 
L 457.721245 -132.932304 
L 456.809789 -131.60296 
L 455.981448 -130.273616 
L 455.239119 -128.944271 
L 454.581444 -127.614927 
L 454.003472 -126.285583 
L 453.497667 -124.956239 
L 453.055114 -123.626894 
L 452.666741 -122.29755 
L 452.324423 -120.968206 
L 452.021811 -119.638862 
L 451.754813 -118.309518 
L 451.521703 -116.980173 
L 451.322876 -115.650829 
L 451.160321 -114.321485 
L 451.036919 -112.992141 
L 450.955665 -111.662796 
L 450.918938 -110.333452 
L 450.927897 -109.004108 
L 450.982067 -107.674764 
L 451.079182 -106.34542 
L 451.215276 -105.016075 
L 451.385043 -103.686731 
L 451.582443 -102.357387 
L 451.801508 -101.028043 
L 452.037313 -99.698698 
L 452.286993 -98.369354 
L 452.550743 -97.04001 
L 452.832639 -95.710666 
L 453.141158 -94.381322 
L 453.489268 -93.051977 
L 453.893973 -91.722633 
L 454.37525 -90.393289 
L 454.954369 -89.063945 
L 455.651665 -87.7346 
L 456.483916 -86.405256 
L 457.461515 -85.075912 
L 458.585753 -83.746568 
L 459.846498 -82.417224 
L 461.220631 -81.087879 
L 462.671516 -79.758535 
L 464.149758 -78.429191 
L 465.595366 -77.099847 
L 466.941272 -75.770502 
L 468.118007 -74.441158 
L 469.059131 -73.111814 
L 469.706894 -71.78247 
L 470.017474 -70.453126 
L 469.965193 -69.123781 
L 469.545141 -67.794437 
L 468.773884 -66.465093 
L 467.688114 -65.135749 
L 466.341417 -63.806404 
L 464.799552 -62.47706 
L 463.134828 -61.147716 
L 461.420248 -59.818372 
L 459.724089 -58.489028 
L 458.105437 -57.159683 
L 456.611078 -55.830339 
L 455.273871 -54.500995 
L 454.112573 -53.171651 
L 453.132899 -51.842306 
L 452.329499 -50.512962 
L 451.688484 -49.183618 
L 451.19016 -47.854274 
L 450.811663 -46.52493 
L 450.529281 -45.195585 
L 450.320335 -43.866241 
L 450.164531 -42.536897 
L 450.04482 -41.207553 
L 449.947784 -39.878208 
z
" style="stroke: #111111"/>
    </defs>
    <g clip-path="url(#p43d7de66f3)">
     <use xlink:href="#m5d516a633b" x="0" y="199.19952" style="fill: #737373; stroke: #111111"/>
    </g>
   </g>
   <g id="matplotlib.axis_3">
    <g id="xtick_10">
     <g id="line2d_26">
      <g>
       <use xlink:href="#m7734990fa3" x="309.963037" y="170.135262" style="stroke: #000000; stroke-width: 0.7"/>
      </g>
     </g>
     <g id="text_22">
      <text style="font-size: 7px; font-family: 'SimSun'; text-anchor: middle" x="309.963037" y="179.650887" transform="rotate(-0 309.963037 179.650887)">尺度1</text>
     </g>
    </g>
    <g id="xtick_11">
     <g id="line2d_27">
      <g>
       <use xlink:href="#m7734990fa3" x="379.528935" y="170.135262" style="stroke: #000000; stroke-width: 0.7"/>
      </g>
     </g>
     <g id="text_23">
      <text style="font-size: 7px; font-family: 'SimSun'; text-anchor: middle" x="379.528935" y="179.650887" transform="rotate(-0 379.528935 179.650887)">尺度2</text>
     </g>
    </g>
    <g id="xtick_12">
     <g id="line2d_28">
      <g>
       <use xlink:href="#m7734990fa3" x="449.094833" y="170.135262" style="stroke: #000000; stroke-width: 0.7"/>
      </g>
     </g>
     <g id="text_24">
      <text style="font-size: 7px; font-family: 'SimSun'; text-anchor: middle" x="449.094833" y="179.650887" transform="rotate(-0 449.094833 179.650887)">尺度4</text>
     </g>
    </g>
   </g>
   <g id="matplotlib.axis_4">
    <g id="ytick_6">
     <g id="line2d_29">
      <path d="M 275.458352 166.052549 
L 483.599518 166.052549 
" clip-path="url(#p43d7de66f3)" style="fill: none; stroke-dasharray: 1.665,0.72; stroke-dashoffset: 0; stroke: #dddddd; stroke-width: 0.45"/>
     </g>
     <g id="line2d_30">
      <g>
       <use xlink:href="#m6bcaf5dd8e" x="275.458352" y="166.052549" style="stroke: #000000; stroke-width: 0.7"/>
      </g>
     </g>
     <g id="text_25">
      <text style="font-size: 7px; font-family: 'Times New Roman'; text-anchor: end" x="271.958352" y="168.479306" transform="rotate(-0 271.958352 168.479306)">0.0</text>
     </g>
    </g>
    <g id="ytick_7">
     <g id="line2d_31">
      <path d="M 275.458352 148.171302 
L 483.599518 148.171302 
" clip-path="url(#p43d7de66f3)" style="fill: none; stroke-dasharray: 1.665,0.72; stroke-dashoffset: 0; stroke: #dddddd; stroke-width: 0.45"/>
     </g>
     <g id="line2d_32">
      <g>
       <use xlink:href="#m6bcaf5dd8e" x="275.458352" y="148.171302" style="stroke: #000000; stroke-width: 0.7"/>
      </g>
     </g>
     <g id="text_26">
      <text style="font-size: 7px; font-family: 'Times New Roman'; text-anchor: end" x="271.958352" y="150.598059" transform="rotate(-0 271.958352 150.598059)">0.1</text>
     </g>
    </g>
    <g id="ytick_8">
     <g id="line2d_33">
      <path d="M 275.458352 130.290055 
L 483.599518 130.290055 
" clip-path="url(#p43d7de66f3)" style="fill: none; stroke-dasharray: 1.665,0.72; stroke-dashoffset: 0; stroke: #dddddd; stroke-width: 0.45"/>
     </g>
     <g id="line2d_34">
      <g>
       <use xlink:href="#m6bcaf5dd8e" x="275.458352" y="130.290055" style="stroke: #000000; stroke-width: 0.7"/>
      </g>
     </g>
     <g id="text_27">
      <text style="font-size: 7px; font-family: 'Times New Roman'; text-anchor: end" x="271.958352" y="132.716812" transform="rotate(-0 271.958352 132.716812)">0.2</text>
     </g>
    </g>
    <g id="ytick_9">
     <g id="line2d_35">
      <path d="M 275.458352 112.408808 
L 483.599518 112.408808 
" clip-path="url(#p43d7de66f3)" style="fill: none; stroke-dasharray: 1.665,0.72; stroke-dashoffset: 0; stroke: #dddddd; stroke-width: 0.45"/>
     </g>
     <g id="line2d_36">
      <g>
       <use xlink:href="#m6bcaf5dd8e" x="275.458352" y="112.408808" style="stroke: #000000; stroke-width: 0.7"/>
      </g>
     </g>
     <g id="text_28">
      <text style="font-size: 7px; font-family: 'Times New Roman'; text-anchor: end" x="271.958352" y="114.835566" transform="rotate(-0 271.958352 114.835566)">0.3</text>
     </g>
    </g>
    <g id="ytick_10">
     <g id="line2d_37">
      <path d="M 275.458352 94.527561 
L 483.599518 94.527561 
" clip-path="url(#p43d7de66f3)" style="fill: none; stroke-dasharray: 1.665,0.72; stroke-dashoffset: 0; stroke: #dddddd; stroke-width: 0.45"/>
     </g>
     <g id="line2d_38">
      <g>
       <use xlink:href="#m6bcaf5dd8e" x="275.458352" y="94.527561" style="stroke: #000000; stroke-width: 0.7"/>
      </g>
     </g>
     <g id="text_29">
      <text style="font-size: 7px; font-family: 'Times New Roman'; text-anchor: end" x="271.958352" y="96.954319" transform="rotate(-0 271.958352 96.954319)">0.4</text>
     </g>
    </g>
    <g id="ytick_11">
     <g id="line2d_39">
      <path d="M 275.458352 76.646314 
L 483.599518 76.646314 
" clip-path="url(#p43d7de66f3)" style="fill: none; stroke-dasharray: 1.665,0.72; stroke-dashoffset: 0; stroke: #dddddd; stroke-width: 0.45"/>
     </g>
     <g id="line2d_40">
      <g>
       <use xlink:href="#m6bcaf5dd8e" x="275.458352" y="76.646314" style="stroke: #000000; stroke-width: 0.7"/>
      </g>
     </g>
     <g id="text_30">
      <text style="font-size: 7px; font-family: 'Times New Roman'; text-anchor: end" x="271.958352" y="79.073072" transform="rotate(-0 271.958352 79.073072)">0.5</text>
     </g>
    </g>
    <g id="ytick_12">
     <g id="line2d_41">
      <path d="M 275.458352 58.765067 
L 483.599518 58.765067 
" clip-path="url(#p43d7de66f3)" style="fill: none; stroke-dasharray: 1.665,0.72; stroke-dashoffset: 0; stroke: #dddddd; stroke-width: 0.45"/>
     </g>
     <g id="line2d_42">
      <g>
       <use xlink:href="#m6bcaf5dd8e" x="275.458352" y="58.765067" style="stroke: #000000; stroke-width: 0.7"/>
      </g>
     </g>
     <g id="text_31">
      <text style="font-size: 7px; font-family: 'Times New Roman'; text-anchor: end" x="271.958352" y="61.191825" transform="rotate(-0 271.958352 61.191825)">0.6</text>
     </g>
    </g>
    <g id="ytick_13">
     <g id="line2d_43">
      <path d="M 275.458352 40.88382 
L 483.599518 40.88382 
" clip-path="url(#p43d7de66f3)" style="fill: none; stroke-dasharray: 1.665,0.72; stroke-dashoffset: 0; stroke: #dddddd; stroke-width: 0.45"/>
     </g>
     <g id="line2d_44">
      <g>
       <use xlink:href="#m6bcaf5dd8e" x="275.458352" y="40.88382" style="stroke: #000000; stroke-width: 0.7"/>
      </g>
     </g>
     <g id="text_32">
      <text style="font-size: 7px; font-family: 'Times New Roman'; text-anchor: end" x="271.958352" y="43.310578" transform="rotate(-0 271.958352 43.310578)">0.7</text>
     </g>
    </g>
    <g id="ytick_14">
     <g id="line2d_45">
      <path d="M 275.458352 23.002573 
L 483.599518 23.002573 
" clip-path="url(#p43d7de66f3)" style="fill: none; stroke-dasharray: 1.665,0.72; stroke-dashoffset: 0; stroke: #dddddd; stroke-width: 0.45"/>
     </g>
     <g id="line2d_46">
      <g>
       <use xlink:href="#m6bcaf5dd8e" x="275.458352" y="23.002573" style="stroke: #000000; stroke-width: 0.7"/>
      </g>
     </g>
     <g id="text_33">
      <text style="font-size: 7px; font-family: 'Times New Roman'; text-anchor: end" x="271.958352" y="25.429331" transform="rotate(-0 271.958352 25.429331)">0.8</text>
     </g>
    </g>
    <g id="text_34">
     <text style="font-size: 8px; font-family: 'SimSun'; text-anchor: middle" x="258.083352" y="95.534819" transform="rotate(-90 258.083352 95.534819)">路由权重</text>
    </g>
   </g>
   <g id="LineCollection_1">
    <path d="M 297.441175 125.670153 
L 322.484899 125.670153 
" clip-path="url(#p43d7de66f3)" style="fill: none; stroke: #111111; stroke-width: 1.1"/>
    <path d="M 367.007073 139.305494 
L 392.050797 139.305494 
" clip-path="url(#p43d7de66f3)" style="fill: none; stroke: #111111; stroke-width: 1.1"/>
    <path d="M 436.572971 56.708698 
L 461.616695 56.708698 
" clip-path="url(#p43d7de66f3)" style="fill: none; stroke: #111111; stroke-width: 1.1"/>
   </g>
   <g id="patch_6">
    <path d="M 275.458352 170.135262 
L 275.458352 20.934375 
" style="fill: none; stroke: #000000; stroke-width: 0.7; stroke-linejoin: miter; stroke-linecap: square"/>
   </g>
   <g id="patch_7">
    <path d="M 275.458352 170.135262 
L 483.599518 170.135262 
" style="fill: none; stroke: #000000; stroke-width: 0.7; stroke-linejoin: miter; stroke-linecap: square"/>
   </g>
   <g id="text_35">
    <text style="font-weight: 700; font-size: 8px; font-family: 'Times New Roman'; text-anchor: start" x="248.4" y="13.239777" transform="rotate(-0 248.4 13.239777)">b</text>
   </g>
   <g id="text_36">
    <text style="font-size: 9px; font-family: 'SimSun'; text-anchor: middle" x="379.528935" y="14.934375" transform="rotate(-0 379.528935 14.934375)">权重分布（n=2439/尺度）</text>
   </g>
  </g>
 </g>
 <defs>
  <clipPath id="pffe56ed85e">
   <rect x="34.258352" y="20.934375" width="208.141167" height="149.200887"/>
  </clipPath>
  <clipPath id="p43d7de66f3">
   <rect x="275.458352" y="20.934375" width="208.141167" height="149.200887"/>
  </clipPath>
 </defs>
</svg>
